# Blender 4.0.2
# www.blender.org
mtllib camilla.mtl
o Cube.001
v -1.137728 0.403207 0.538863
v -1.137728 0.403207 -0.538863
v -1.139635 0.227409 0.538863
v -1.139635 0.227409 -0.538863
v 1.139635 0.250071 0.538863
v 1.139635 0.250071 -0.538863
v 1.139635 0.074579 0.538863
v 1.139635 0.074579 -0.538863
v -0.258544 0.074579 0.515969
v -0.258544 0.074579 -0.515969
v -0.306963 0.250071 0.538863
v -0.306963 0.250071 -0.538863
v 1.192825 0.074579 -0.538863
v 1.192825 0.074579 0.538863
v 1.192825 0.250071 0.538863
v 1.192825 0.250071 -0.538863
v 1.139635 0.447203 -0.538863
v 1.139635 0.447203 0.538863
v 1.192825 0.447203 -0.538863
v 1.192825 0.447203 0.538863
v 1.151693 0.516996 -0.477543
v 1.151693 0.516996 0.477543
v 1.180767 0.516996 -0.477543
v 1.180767 0.516996 0.477543
v -0.764230 0.049105 -0.543012
v -0.142677 0.074579 -0.515969
v -1.082945 0.398033 0.538863
v -1.082945 0.398033 -0.538863
v -1.135821 0.600645 -0.538863
v -1.135821 0.600645 0.538863
v -1.082632 0.600645 -0.538863
v -1.082632 0.600645 0.538863
v -1.123763 0.670439 -0.477543
v -1.123763 0.670439 0.477543
v -1.094689 0.670439 -0.477543
v -1.094689 0.670439 0.477543
v -1.083259 0.217062 0.538863
v -0.172653 0.074579 -0.538863
v -1.083259 0.217062 -0.538863
v -0.172653 0.250071 0.538863
v 0.706422 0.074579 0.515969
v 0.754841 0.250071 -0.538863
v 0.754841 0.250071 0.538863
v 0.706422 0.074579 -0.515969
v 0.754841 0.074579 0.538863
v -0.306963 0.074579 0.538863
v -0.306963 0.074579 -0.538863
v 0.754841 0.074579 -0.538863
v 1.188461 0.049105 0.535355
v -1.139730 0.049105 0.535355
v -1.139730 0.049105 -0.535355
v 1.188461 0.049105 -0.535355
v 1.188461 0.006855 0.535355
v -1.139730 0.006855 0.535355
v -1.139730 0.006855 -0.535355
v 1.188461 0.006855 -0.535355
v -1.139686 0.050469 -0.535822
v -1.139686 0.050469 0.534390
v -1.083309 0.050926 0.534390
v -1.083309 0.050926 -0.535822
v 1.139635 0.050922 -0.538863
v 1.139635 0.050922 0.538863
v 1.192825 0.050922 -0.538863
v 1.192825 0.050922 0.538863
v -0.244906 0.074579 0.538863
v -0.244906 0.250071 -0.538863
v -0.244906 0.250071 0.538863
v -0.244906 0.074579 -0.538863
v -0.209140 0.074579 0.515969
v -0.209140 0.074579 -0.515969
v -0.912204 0.049105 0.535355
v -0.912204 0.049105 -0.535355
v -0.912204 0.006855 0.535355
v -0.912204 0.006855 -0.535355
v -0.764230 0.006855 -0.535355
v -0.172653 0.074579 0.538863
v -0.172653 0.250071 -0.538863
v -0.142677 0.074579 0.515969
v -0.764230 0.049105 0.535355
v -0.764230 0.006855 0.535355
v -0.856024 -0.083441 -0.470890
v -0.830129 -0.083441 -0.477387
v -0.819611 -0.083441 0.469963
v -0.845142 -0.083441 0.477771
v -1.137728 0.403207 0.000000
v -1.139635 0.227409 0.000000
v 1.139635 0.074579 0.000000
v 1.139635 0.250071 0.000000
v -0.306963 0.250071 0.000000
v -0.306963 0.074579 0.000000
v 1.192825 0.074579 0.000000
v 1.192825 0.250071 0.000000
v 1.139635 0.447203 0.000000
v 1.192825 0.447203 0.000000
v 1.151693 0.516996 0.000000
v 1.180767 0.516996 0.000000
v -1.082945 0.398033 0.000000
v -1.135821 0.600645 0.000000
v -1.082632 0.600645 0.000000
v -1.123763 0.670439 0.000000
v -1.094689 0.670439 0.000000
v -1.083259 0.217062 0.000000
v 0.754841 0.074579 0.000000
v 0.754841 0.250071 0.000000
v -0.258544 0.074579 0.000000
v 0.706422 0.074579 0.000000
v -1.139730 0.049105 0.000000
v 1.188461 0.049105 0.000000
v -1.139730 0.006855 0.000000
v 1.188461 0.006855 0.000000
v -1.139686 0.050469 -0.000716
v -1.083309 0.050926 -0.000716
v 1.139635 0.050922 0.000000
v 1.192825 0.050922 0.000000
v -0.912204 0.006855 0.000000
v -0.244906 0.250071 0.000000
v -0.172653 0.250071 0.000000
v -0.764230 0.006855 0.000000
v -0.856824 -0.083441 0.439576
v -0.831292 -0.083441 0.431768
v -0.767313 -0.083441 0.513044
v -0.909121 -0.083441 0.513044
v -0.846305 -0.083441 -0.432151
v -0.820410 -0.083441 -0.438648
v -0.909121 -0.083441 -0.513044
v -0.767313 -0.083441 -0.513044
v -0.909121 -0.083441 0.000000
v -0.767313 -0.083441 0.000000
v -0.787573 -0.099398 0.460165
v -0.877179 -0.099398 0.487568
v -0.888860 -0.099398 0.449373
v -0.799254 -0.099398 0.421970
v -0.888516 -0.099398 -0.462739
v -0.797637 -0.099398 -0.485539
v -0.878796 -0.099398 -0.423999
v -0.787917 -0.099398 -0.446800
v -0.751677 -0.133115 0.449187
v -0.913075 -0.133115 0.498546
v -0.924756 -0.133115 0.460351
v -0.763358 -0.133115 0.410992
v -0.924921 -0.133115 -0.453605
v -0.761231 -0.133115 -0.494673
v -0.915202 -0.133115 -0.414865
v -0.751511 -0.133115 -0.455934
v -0.751677 -0.185901 0.449187
v -0.913075 -0.185901 0.498546
v -0.924756 -0.185901 0.460351
v -0.763358 -0.185901 0.410992
v -0.924921 -0.185901 -0.453605
v -0.761231 -0.185901 -0.494673
v -0.915202 -0.185901 -0.414865
v -0.751511 -0.185901 -0.455934
v -0.787573 -0.225505 0.460165
v -0.877179 -0.225505 0.487568
v -0.888860 -0.225505 0.449373
v -0.799254 -0.225505 0.421970
v -0.888516 -0.225505 -0.462739
v -0.797637 -0.225505 -0.485539
v -0.878796 -0.225505 -0.423999
v -0.787917 -0.225505 -0.446800
v -0.819611 -0.243448 0.469963
v -0.845142 -0.243448 0.477771
v -0.856824 -0.243448 0.439576
v -0.831292 -0.243448 0.431768
v -0.856024 -0.243448 -0.470890
v -0.830129 -0.243448 -0.477387
v -0.846305 -0.243448 -0.432151
v -0.820410 -0.243448 -0.438648
v 0.811281 0.007208 0.535820
v 0.811281 0.007208 -0.534889
v 0.959599 0.007208 -0.534889
v 0.959599 0.007208 0.535820
v 0.873294 -0.082734 -0.474945
v 0.899880 -0.082734 -0.472505
v 0.891567 -0.082734 0.478737
v 0.866076 -0.082734 0.470795
v 0.811281 0.007208 0.000465
v 0.959599 0.007208 0.000465
v 0.877957 -0.082734 0.432662
v 0.903448 -0.082734 0.440604
v 0.955666 -0.082734 0.513974
v 0.813858 -0.082734 0.513974
v 0.869644 -0.082734 -0.435172
v 0.896230 -0.082734 -0.432732
v 0.813858 -0.082734 -0.512113
v 0.955666 -0.082734 -0.512113
v 0.813858 -0.082734 0.000930
v 0.955666 -0.082734 0.000930
v 0.923553 -0.098691 0.488703
v 0.834092 -0.098691 0.460829
v 0.845973 -0.098691 0.422696
v 0.935434 -0.098691 0.450570
v 0.839936 -0.098691 -0.478007
v 0.933240 -0.098691 -0.469444
v 0.836286 -0.098691 -0.438234
v 0.929589 -0.098691 -0.429671
v 0.959390 -0.132408 0.499869
v 0.798254 -0.132408 0.449663
v 0.810135 -0.132408 0.411530
v 0.971272 -0.132408 0.461736
v 0.802559 -0.132408 -0.481437
v 0.970617 -0.132408 -0.466013
v 0.798909 -0.132408 -0.441664
v 0.966966 -0.132408 -0.426240
v 0.959390 -0.185195 0.499869
v 0.798254 -0.185195 0.449663
v 0.810135 -0.185195 0.411530
v 0.971272 -0.185195 0.461736
v 0.802559 -0.185195 -0.481437
v 0.970617 -0.185195 -0.466013
v 0.798909 -0.185195 -0.441664
v 0.966966 -0.185195 -0.426240
v 0.923553 -0.224799 0.488703
v 0.834092 -0.224799 0.460829
v 0.845973 -0.224799 0.422696
v 0.935434 -0.224799 0.450570
v 0.839936 -0.224799 -0.478007
v 0.933240 -0.224799 -0.469444
v 0.836286 -0.224799 -0.438234
v 0.929589 -0.224799 -0.429671
v 0.891567 -0.242741 0.478737
v 0.866076 -0.242741 0.470795
v 0.877957 -0.242741 0.432662
v 0.903448 -0.242741 0.440604
v 0.873294 -0.242741 -0.474945
v 0.899880 -0.242741 -0.472505
v 0.869644 -0.242741 -0.435172
v 0.896230 -0.242741 -0.432732
v 0.607274 0.074579 0.515969
v 0.646539 0.250071 -0.538863
v 0.646539 0.074579 0.538863
v 0.646539 0.250071 0.538863
v 0.646539 0.074579 -0.538863
v 0.607274 0.074579 -0.515969
v 0.960449 0.049105 -0.535355
v 0.960449 0.049105 0.535355
v 0.646539 0.250071 0.000000
v 0.542631 0.074579 0.515969
v 0.575927 0.250071 -0.538863
v 0.575927 0.074579 0.538863
v 0.811788 0.049105 0.535355
v 0.575927 0.250071 0.000000
v 0.575927 0.250071 0.538863
v 0.575927 0.074579 -0.538863
v 0.542631 0.074579 -0.515969
v 0.811788 0.049105 -0.543012
v -0.764221 0.048786 -0.592954
v -0.764221 0.006536 -0.592954
v 0.811796 0.048786 -0.592954
v 0.811290 0.006889 -0.592489
v -0.764230 0.309522 -0.544673
v 0.811788 0.309522 -0.544673
v -0.764221 0.309204 -0.594615
v 0.811796 0.309204 -0.594615
v -0.733140 0.433530 -0.560164
v -0.764230 0.406347 -0.545291
v 0.811788 0.406347 -0.545291
v 0.780703 0.433530 -0.560164
v -0.764221 0.406028 -0.595232
v -0.733137 0.433399 -0.580707
v 0.780707 0.433399 -0.580707
v 0.811796 0.406028 -0.595232
vn -0.9999 0.0108 -0.0000
vn -0.0000 -0.0000 -1.0000
vn -0.0000 -0.0000 1.0000
vn -0.0000 1.0000 -0.0000
vn -0.1805 -0.9836 -0.0000
vn 1.0000 -0.0000 -0.0000
vn -0.0000 0.6600 -0.7512
vn -1.0000 -0.0000 -0.0000
vn 0.9854 0.1702 -0.0000
vn -0.0000 0.6600 0.7512
vn -0.9854 0.1702 -0.0000
vn -1.0000 0.0097 -0.0000
vn 1.0000 -0.0015 -0.0000
vn -1.0000 0.0003 -0.0000
vn 0.1873 0.9823 -0.0000
vn -0.0000 -1.0000 -0.0000
vn -0.0001 0.0055 1.0000
vn 0.0528 0.9986 -0.0000
vn -0.0000 0.6056 0.7958
vn -0.0010 -0.0055 -1.0000
vn -0.0289 0.9996 -0.0000
vn -0.0000 0.6056 -0.7958
vn -0.0015 -1.0000 -0.0000
vn 0.0081 -1.0000 -0.0000
vn -0.0023 -0.0261 0.9997
vn 1.0000 -0.0003 -0.0000
vn -0.0016 -0.0177 -0.9998
vn -0.9994 -0.0341 -0.0000
vn -0.0171 0.8785 -0.4775
vn -0.0258 -0.0902 -0.9956
vn 0.2434 -0.0000 0.9699
vn -0.0000 -0.2399 -0.9708
vn 0.9994 -0.0341 -0.0000
vn -0.0000 -0.2399 0.9708
vn 0.4112 0.9028 -0.1258
vn 0.6482 0.7439 -0.1626
vn -0.6390 0.7439 0.1954
vn 0.2925 -0.0000 0.9563
vn -0.4171 0.9028 0.1047
vn -0.2925 -0.0000 -0.9563
vn -0.4112 0.9028 0.1258
vn 0.4171 0.9028 -0.1047
vn -0.2434 -0.0000 -0.9699
vn -0.9699 -0.0000 0.2434
vn 0.6390 0.7439 -0.1954
vn -0.6482 0.7439 0.1626
vn 0.6941 -0.6879 -0.2123
vn -0.9563 -0.0000 0.2925
vn 0.9699 -0.0000 -0.2434
vn 0.9563 -0.0000 -0.2925
vn 0.4579 -0.8815 -0.1149
vn -0.7040 -0.6879 0.1766
vn -0.6941 -0.6879 0.2123
vn 0.7040 -0.6879 -0.1766
vn 0.4515 -0.8815 -0.1381
vn -0.4580 -0.8815 0.1149
vn -0.4515 -0.8815 0.1381
vn -0.9996 -0.0286 -0.0000
vn -0.0914 -0.0000 0.9958
vn -0.0000 -0.2455 -0.9694
vn 0.9990 -0.0437 -0.0000
vn -0.0000 -0.2360 0.9717
vn 0.4105 0.9028 0.1279
vn 0.6655 0.7439 0.0611
vn -0.6380 0.7439 -0.1988
vn -0.2975 -0.0000 0.9547
vn -0.4283 0.9028 -0.0393
vn 0.2975 -0.0000 -0.9547
vn -0.4106 0.9028 -0.1279
vn 0.4282 0.9028 0.0393
vn 0.0914 -0.0000 -0.9958
vn -0.9958 -0.0000 -0.0914
vn 0.6380 0.7439 0.1988
vn -0.6655 0.7439 -0.0611
vn 0.6929 -0.6879 0.2159
vn -0.9547 -0.0000 -0.2975
vn 0.9958 -0.0000 0.0914
vn 0.9547 -0.0000 0.2975
vn 0.4702 -0.8815 0.0432
vn -0.7228 -0.6879 -0.0663
vn -0.6929 -0.6879 -0.2159
vn 0.7228 -0.6879 0.0663
vn 0.4507 -0.8815 0.1404
vn -0.4702 -0.8815 -0.0432
vn -0.4508 -0.8815 -0.1404
vn 0.0214 0.8033 -0.5952
vn 0.0256 -0.1023 -0.9944
vn 0.0010 0.0055 1.0000
vn 0.9999 -0.0121 0.0002
vn -0.0000 0.7279 -0.6857
vn 0.0002 -1.0000 -0.0000
vn -0.0000 0.0111 0.9999
vn 0.0001 -0.0055 -1.0000
vn -1.0000 -0.0000 -0.0002
vn -0.0000 0.0064 1.0000
vn 0.0002 -1.0000 0.0055
vn 1.0000 -0.0000 0.0002
vn -0.0000 -0.0064 -1.0000
vn -0.0000 1.0000 -0.0064
vn -0.0000 0.4800 0.8773
vn -0.0000 0.4688 -0.8833
vn 0.6595 0.7517 -0.0047
vn -0.6595 0.7516 -0.0049
vt 0.500000 0.000000
vt 0.625000 0.000000
vt 0.625000 0.250000
vt 0.500000 0.250000
vt 0.625000 0.500000
vt 0.667206 0.500000
vt 0.667206 0.750000
vt 0.625000 0.750000
vt 0.375000 0.750000
vt 0.685393 0.500000
vt 0.761488 0.500000
vt 0.761488 0.750000
vt 0.685393 0.750000
vt 0.500000 0.750000
vt 0.500000 0.792206
vt 0.375000 0.792206
vt 0.868816 0.500000
vt 0.875000 0.500000
vt 0.875000 0.750000
vt 0.868816 0.750000
vt 0.768452 0.500000
vt 0.783669 0.500000
vt 0.783669 0.750000
vt 0.768452 0.750000
vt 0.131184 0.500000
vt 0.216331 0.500000
vt 0.216331 0.750000
vt 0.131184 0.750000
vt 0.500000 0.893452
vt 0.625000 0.893452
vt 0.625000 0.908669
vt 0.500000 0.908669
vt 0.500000 0.256184
vt 0.625000 0.256184
vt 0.625000 0.341331
vt 0.500000 0.341331
vt 0.500000 0.500000
vt 0.375000 0.500000
vt 0.500000 0.750000
vt 0.125000 0.500000
vt 0.125000 0.750000
vt 0.625000 0.993816
vt 0.500000 0.993816
vt 0.332794 0.500000
vt 0.332794 0.750000
vt 0.619689 0.435955
vt 0.619689 0.366800
vt 0.625000 0.363512
vt 0.625000 0.439607
vt 0.380311 0.435955
vt 0.380311 0.366800
vt 0.380311 0.435955
vt 0.500000 0.452483
vt 0.380311 0.452483
vt 0.321785 0.500000
vt 0.321785 0.750000
vt 0.500000 0.810393
vt 0.625000 0.810393
vt 0.625000 0.886488
vt 0.500000 0.886488
vt 0.380311 0.435955
vt 0.380311 0.366800
vt 0.380311 0.442478
vt 0.375000 0.457794
vt 0.375000 0.446785
vt 0.500000 0.346642
vt 0.380311 0.346642
vt 0.375000 0.341331
vt 0.619689 0.360471
vt 0.619689 0.346642
vt 0.625000 0.356548
vt 0.619689 0.452483
vt 0.625000 0.457794
vt 0.500000 0.457794
vt 0.619689 0.442478
vt 0.619689 0.442478
vt 0.619689 0.442478
vt 0.380311 0.360471
vt 0.380311 0.360471
vt 0.500000 0.442478
vt 0.375000 0.256184
vt 0.619689 0.360471
vt 0.500000 0.360471
vt 0.375000 0.356548
vt 0.231548 0.500000
vt 0.231548 0.750000
vt 0.619689 0.366800
vt 0.619689 0.366800
vt 0.375000 0.363512
vt 0.238512 0.500000
vt 0.238512 0.750000
vt 0.501775 0.366082
vt 0.501775 0.361189
vt 0.500000 0.366800
vt 0.498226 0.366082
vt 0.382085 0.366082
vt 0.375000 0.886488
vt 0.375000 0.893452
vt 0.375000 0.250000
vt 0.380311 0.442478
vt 0.375000 0.810393
vt 0.375000 0.908669
vt 0.375000 0.993816
vt 0.625000 0.792206
vt 0.375000 0.000000
vt 0.382085 0.361189
vt 0.498226 0.361189
vt 0.617914 0.366082
vt 0.617914 0.361189
vt 0.500000 0.803215
vt 0.375000 0.803215
vt 0.619689 0.435955
vt 0.619689 0.435955
vt 0.375000 0.439607
vt 0.380311 0.442478
vt 0.625000 0.803215
vt 0.314607 0.500000
vt 0.314607 0.750000
vt 0.625000 0.446785
vt 0.678215 0.500000
vt 0.678215 0.750000
vt 0.500000 0.435955
vt 0.619689 0.368164
vt 0.619689 0.434591
vt 0.619689 0.434591
vt 0.619689 0.368164
s 0
g Cube.001_Material
usemtl Material
f 85/1/1 2/2/1 4/3/1 86/4/1
f 5/9/3 15/9/3 20/9/3 18/9/3
f 39/17/2 4/18/2 2/19/2 28/20/2
f 91/37/6 13/5/6 16/8/6 92/14/6
f 5/9/3 7/38/3 14/38/3 15/9/3
f 8/5/2 6/8/2 16/8/2 13/5/2
f 8/5/2 13/5/2 63/5/2 61/5/2
f 19/8/7 17/8/7 21/8/7 23/8/7
f 88/14/8 5/9/8 18/9/8 93/14/8
f 16/8/2 6/8/2 17/8/2 19/8/2
f 92/14/6 16/8/6 19/8/6 94/14/6
f 95/39/4 22/9/4 24/9/4 96/14/4
f 94/14/9 19/8/9 23/8/9 96/14/9
f 18/9/10 20/9/10 24/9/10 22/9/10
f 93/14/11 18/9/11 22/9/11 95/39/11
f 1/9/3 27/9/3 32/9/3 30/9/3
f 31/8/7 29/8/7 33/8/7 35/8/7
f 85/14/12 1/9/12 30/9/12 98/14/12
f 28/8/2 2/8/2 29/8/2 31/8/2
f 97/14/13 28/8/13 31/8/13 99/14/13
f 100/14/4 34/9/4 36/9/4 101/14/4
f 99/14/9 31/8/9 35/8/9 101/14/9
f 30/9/10 32/9/10 36/9/10 34/9/10
f 98/14/11 30/9/11 34/9/11 100/14/11
f 86/4/14 4/3/14 57/3/14 111/4/14
f 3/40/3 37/25/3 27/28/3 1/41/3
f 245/46/16 26/47/16 38/48/16 244/49/16
f 241/50/17 79/51/17 80/51/17 169/52/17
f 106/53/18 41/54/18 49/54/18 108/53/18
f 238/61/19 78/62/19 79/51/19 241/50/19
f 229/63/16 41/54/16 45/64/16 231/65/16
f 105/66/16 9/67/16 46/68/16 90/36/16
f 70/69/16 10/70/16 47/35/16 68/71/16
f 106/53/16 44/72/16 48/73/16 103/74/16
f 235/75/20 52/72/20 56/72/20 171/76/20
f 105/66/21 10/70/21 51/70/21 107/66/21
f 234/77/22 44/72/22 52/72/22 235/75/22
f 69/78/19 9/67/19 50/67/19 71/79/19
f 178/80/23 171/76/23 56/72/23 110/53/23
f 71/79/3 50/67/3 54/67/3 73/79/3
f 108/53/6 49/54/6 53/54/6 110/53/6
f 107/66/8 51/70/8 55/70/8 109/66/8
f 111/4/24 57/3/24 60/34/24 112/33/24
f 37/25/25 3/40/25 58/40/25 59/25/25
f 102/33/26 37/81/26 59/81/26 112/33/26
f 4/18/27 39/17/27 60/17/27 57/18/27
f 113/37/16 61/5/16 63/5/16 114/37/16
f 87/37/8 8/5/8 61/5/8 113/37/8
f 14/38/3 7/38/3 62/38/3 64/38/3
f 91/37/6 14/38/6 64/38/6 114/37/6
f 79/51/3 71/79/3 73/79/3 80/51/3
f 109/66/16 55/70/16 74/82/16 115/83/16
f 78/62/19 69/78/19 71/79/19 79/51/19
f 10/70/22 70/69/22 72/82/22 51/70/22
f 51/70/2 72/82/2 74/82/2 55/70/2
f 26/47/16 70/69/16 68/71/16 38/48/16
f 9/67/16 69/78/16 65/84/16 46/68/16
f 103/74/16 48/73/16 8/5/16 87/37/16
f 115/83/28 74/82/28 125/82/28 127/83/28
f 70/69/29 26/47/29 25/87/29 72/82/29
f 72/82/30 25/87/30 75/88/30 74/82/30
f 69/78/16 78/62/16 76/89/16 65/84/16
f 74/82/32 75/88/32 126/88/32 125/82/32
f 118/94/33 80/51/33 121/51/33 128/94/33
f 80/51/34 73/79/34 122/79/34 121/51/34
f 75/88/33 118/94/33 128/94/33 126/88/33
f 73/79/28 115/83/28 127/83/28 122/79/28
f 45/64/16 103/74/16 87/37/16 7/38/16
f 54/67/16 109/66/16 115/83/16 73/79/16
f 13/5/6 91/37/6 114/37/6 63/5/6
f 7/38/8 87/37/8 113/37/8 62/38/8
f 62/38/16 113/37/16 114/37/16 64/38/16
f 39/34/26 102/33/26 112/33/26 60/34/26
f 58/99/24 111/4/24 112/33/24 59/81/24
f 50/67/8 107/66/8 109/66/8 54/67/8
f 52/72/6 108/53/6 110/53/6 56/72/6
f 172/100/23 178/80/23 110/53/23 53/54/23
f 9/67/21 105/66/21 107/66/21 50/67/21
f 41/54/16 106/53/16 103/74/16 45/64/16
f 10/70/16 105/66/16 90/36/16 47/35/16
f 44/72/18 106/53/18 108/53/18 52/72/18
f 3/99/14 86/4/14 111/4/14 58/99/14
f 29/8/11 98/14/11 100/14/11 33/8/11
f 32/9/9 99/14/9 101/14/9 36/9/9
f 33/8/4 100/14/4 101/14/4 35/8/4
f 27/9/13 97/14/13 99/14/13 32/9/13
f 2/8/12 85/14/12 98/14/12 29/8/12
f 17/8/11 93/14/11 95/39/11 21/8/11
f 20/9/9 94/14/9 96/14/9 24/9/9
f 21/8/4 95/39/4 96/14/4 23/8/4
f 15/9/6 92/14/6 94/14/6 20/9/6
f 6/8/8 88/14/8 93/14/8 17/8/8
f 14/38/6 91/37/6 92/14/6 15/9/6
f 1/105/1 85/1/1 86/4/1 3/99/1
f 84/106/16 83/96/16 121/51/16 122/79/16
f 119/107/16 84/106/16 122/79/16 127/83/16
f 83/96/16 120/95/16 128/94/16 121/51/16
f 120/95/16 119/107/16 127/83/16 128/94/16
f 82/108/16 81/109/16 125/82/16 126/88/16
f 81/109/16 123/93/16 127/83/16 125/82/16
f 124/92/16 82/108/16 126/88/16 128/94/16
f 123/93/16 124/92/16 128/94/16 127/83/16
f 177/83/58 170/82/58 185/82/58 187/83/58
f 170/82/60 171/88/60 186/88/60 185/82/60
f 178/94/61 172/51/61 181/51/61 188/94/61
f 172/51/62 169/79/62 182/79/62 181/51/62
f 171/88/61 178/94/61 188/94/61 186/88/61
f 169/79/58 177/83/58 187/83/58 182/79/58
f 176/106/16 175/96/16 181/51/16 182/79/16
f 179/107/16 176/106/16 182/79/16 187/83/16
f 175/96/16 180/95/16 188/94/16 181/51/16
f 180/95/16 179/107/16 187/83/16 188/94/16
f 174/108/16 173/109/16 185/82/16 186/88/16
f 173/109/16 183/93/16 187/83/16 185/82/16
f 184/92/16 174/108/16 186/88/16 188/94/16
f 183/93/16 184/92/16 188/94/16 187/83/16
f 245/46/86 234/77/86 235/75/86 246/112/86
f 246/112/87 235/75/87 171/76/87 170/113/87
f 238/61/16 229/63/16 231/65/16 240/114/16
f 41/54/19 229/63/19 236/115/19 49/54/19
f 49/54/88 236/115/88 172/100/88 53/54/88
f 44/72/16 234/77/16 233/119/16 48/73/16
f 78/62/16 238/61/16 240/114/16 76/89/16
f 246/112/89 170/113/89 250/113/89 249/112/89
f 26/47/90 245/46/90 246/112/90 25/87/90
f 118/94/91 75/88/91 170/113/91 177/122/91
f 80/51/91 118/94/91 177/122/91 169/52/91
f 229/63/19 238/61/19 241/50/19 236/115/19
f 236/115/92 241/50/92 169/52/92 172/100/92
f 234/77/16 245/46/16 244/49/16 233/119/16
f 247/87/93 249/112/93 250/113/93 248/88/93
f 75/88/94 25/87/94 247/87/94 248/88/94
f 25/87/95 246/112/95 252/112/95 251/87/95
f 170/113/96 75/88/96 248/88/96 250/113/96
f 252/112/97 254/112/97 262/112/97 257/112/97
f 246/112/97 249/112/97 254/112/97 252/112/97
f 249/112/98 247/87/98 253/87/98 254/112/98
f 247/87/94 25/87/94 251/87/94 253/87/94
f 253/87/94 251/87/94 256/87/94 259/87/94
f 254/112/98 253/87/98 259/87/98 262/112/98
f 255/123/99 258/124/99 261/125/99 260/126/99
f 256/87/100 257/112/100 258/124/100 255/123/100
f 260/126/101 261/125/101 262/112/101 259/87/101
f 261/125/102 258/124/102 257/112/102 262/112/102
f 255/123/103 260/126/103 259/87/103 256/87/103
f 251/87/95 252/112/95 257/112/95 256/87/95
g Cube.001_Material.001
usemtl Material.001
f 8/5/2 48/6/2 42/7/2 6/8/2
f 244/10/2 38/11/2 77/12/2 239/13/2
f 88/14/4 104/15/4 43/16/4 5/9/4
f 68/21/2 47/22/2 12/23/2 66/24/2
f 37/25/3 46/26/3 11/27/3 27/28/3
f 116/29/4 66/30/4 12/31/4 89/32/4
f 102/33/5 39/34/5 47/35/5 90/36/5
f 47/22/2 39/17/2 28/20/2 12/23/2
f 89/32/15 12/31/15 28/42/15 97/43/15
f 45/44/3 7/38/3 5/9/3 43/45/3
f 231/55/3 45/44/3 43/45/3 232/56/3
f 242/57/4 239/58/4 77/59/4 117/60/4
f 46/26/3 65/85/3 67/86/3 11/27/3
f 117/60/4 77/59/4 66/30/4 116/29/4
f 38/11/2 68/21/2 66/24/2 77/12/2
f 65/85/3 76/90/3 40/91/3 67/86/3
f 40/97/4 117/60/4 116/29/4 67/98/4
f 243/101/4 242/57/4 117/60/4 40/97/4
f 11/102/15 89/32/15 97/43/15 27/103/15
f 37/81/5 102/33/5 90/36/5 46/68/5
f 67/98/4 116/29/4 89/32/4 11/102/4
f 6/8/4 42/104/4 104/15/4 88/14/4
f 43/16/4 104/15/4 237/110/4 232/111/4
f 104/15/4 42/104/4 230/116/4 237/110/4
f 240/117/3 231/55/3 232/56/3 243/118/3
f 48/6/2 233/120/2 230/121/2 42/7/2
f 76/90/3 240/117/3 243/118/3 40/91/3
f 232/111/4 237/110/4 242/57/4 243/101/4
f 237/110/4 230/116/4 239/58/4 242/57/4
f 233/120/2 244/10/2 239/13/2 230/121/2
g Cube.001_Material.002
usemtl Material.002
f 124/92/31 123/93/31 135/93/31 136/92/31
f 120/95/35 83/96/35 129/96/35 132/95/35
f 134/108/36 136/92/36 144/92/36 142/108/36
f 130/106/37 131/107/37 139/107/37 138/106/37
f 83/96/38 84/106/38 130/106/38 129/96/38
f 123/93/39 81/109/39 133/109/39 135/93/39
f 119/107/40 120/95/40 132/95/40 131/107/40
f 84/106/41 119/107/41 131/107/41 130/106/41
f 82/108/42 124/92/42 136/92/42 134/108/42
f 81/109/43 82/108/43 134/108/43 133/109/43
f 143/93/44 141/109/44 149/109/44 151/93/44
f 144/92/31 143/93/31 151/93/31 152/92/31
f 133/109/43 134/108/43 142/108/43 141/109/43
f 132/95/45 129/96/45 137/96/45 140/95/45
f 129/96/38 130/106/38 138/106/38 137/96/38
f 136/92/31 135/93/31 143/93/31 144/92/31
f 135/93/46 133/109/46 141/109/46 143/93/46
f 131/107/40 132/95/40 140/95/40 139/107/40
f 145/96/38 146/106/38 154/106/38 153/96/38
f 148/95/47 145/96/47 153/96/47 156/95/47
f 139/107/40 140/95/40 148/95/40 147/107/40
f 138/106/48 139/107/48 147/107/48 146/106/48
f 142/108/49 144/92/49 152/92/49 150/108/49
f 141/109/43 142/108/43 150/108/43 149/109/43
f 140/95/50 137/96/50 145/96/50 148/95/50
f 137/96/38 138/106/38 146/106/38 145/96/38
f 157/109/43 158/108/43 166/108/43 165/109/43
f 158/108/51 160/92/51 168/92/51 166/108/51
f 152/92/31 151/93/31 159/93/31 160/92/31
f 151/93/52 149/109/52 157/109/52 159/93/52
f 147/107/40 148/95/40 156/95/40 155/107/40
f 146/106/53 147/107/53 155/107/53 154/106/53
f 150/108/54 152/92/54 160/92/54 158/108/54
f 149/109/43 150/108/43 158/108/43 157/109/43
f 167/93/16 165/109/16 166/108/16 168/92/16
f 162/106/16 163/107/16 164/95/16 161/96/16
f 156/95/55 153/96/55 161/96/55 164/95/55
f 153/96/38 154/106/38 162/106/38 161/96/38
f 160/92/31 159/93/31 167/93/31 168/92/31
f 159/93/56 157/109/56 165/109/56 167/93/56
f 155/107/40 156/95/40 164/95/40 163/107/40
f 154/106/57 155/107/57 163/107/57 162/106/57
f 184/92/59 183/93/59 195/93/59 196/92/59
f 180/95/63 175/96/63 189/96/63 192/95/63
f 194/108/64 196/92/64 204/92/64 202/108/64
f 190/106/65 191/107/65 199/107/65 198/106/65
f 175/96/66 176/106/66 190/106/66 189/96/66
f 183/93/67 173/109/67 193/109/67 195/93/67
f 179/107/68 180/95/68 192/95/68 191/107/68
f 176/106/69 179/107/69 191/107/69 190/106/69
f 174/108/70 184/92/70 196/92/70 194/108/70
f 173/109/71 174/108/71 194/108/71 193/109/71
f 203/93/72 201/109/72 209/109/72 211/93/72
f 204/92/59 203/93/59 211/93/59 212/92/59
f 193/109/71 194/108/71 202/108/71 201/109/71
f 192/95/73 189/96/73 197/96/73 200/95/73
f 189/96/66 190/106/66 198/106/66 197/96/66
f 196/92/59 195/93/59 203/93/59 204/92/59
f 195/93/74 193/109/74 201/109/74 203/93/74
f 191/107/68 192/95/68 200/95/68 199/107/68
f 205/96/66 206/106/66 214/106/66 213/96/66
f 208/95/75 205/96/75 213/96/75 216/95/75
f 199/107/68 200/95/68 208/95/68 207/107/68
f 198/106/76 199/107/76 207/107/76 206/106/76
f 202/108/77 204/92/77 212/92/77 210/108/77
f 201/109/71 202/108/71 210/108/71 209/109/71
f 200/95/78 197/96/78 205/96/78 208/95/78
f 197/96/66 198/106/66 206/106/66 205/96/66
f 217/109/71 218/108/71 226/108/71 225/109/71
f 218/108/79 220/92/79 228/92/79 226/108/79
f 212/92/59 211/93/59 219/93/59 220/92/59
f 211/93/80 209/109/80 217/109/80 219/93/80
f 207/107/68 208/95/68 216/95/68 215/107/68
f 206/106/81 207/107/81 215/107/81 214/106/81
f 210/108/82 212/92/82 220/92/82 218/108/82
f 209/109/71 210/108/71 218/108/71 217/109/71
f 227/93/16 225/109/16 226/108/16 228/92/16
f 222/106/16 223/107/16 224/95/16 221/96/16
f 216/95/83 213/96/83 221/96/83 224/95/83
f 213/96/66 214/106/66 222/106/66 221/96/66
f 220/92/59 219/93/59 227/93/59 228/92/59
f 219/93/84 217/109/84 225/109/84 227/93/84
f 215/107/68 216/95/68 224/95/68 223/107/68
f 214/106/85 215/107/85 223/107/85 222/106/85
