# Blender 4.0.2
# www.blender.org
mtllib expendedora.mtl
o Cube.001
v -0.437210 -1.000000 0.705139
v -0.437210 1.000000 0.705139
v -0.437210 -1.000000 -0.705139
v -0.437210 1.000000 -0.705139
v 0.437210 -0.707401 0.502283
v 0.437210 0.897108 0.596277
v 0.437210 -0.707401 -0.243646
v 0.437210 0.156031 -0.406247
v 0.437210 0.297010 -0.598430
v 0.437210 -0.876190 -0.243646
v 0.437210 -0.876190 0.502283
v 0.437210 1.000000 0.705139
v 0.437210 -1.000000 0.705139
v 0.437210 -0.612004 -0.579203
v 0.437210 -0.583591 0.596277
v 0.437210 0.115450 -0.406250
v 0.399554 0.897108 -0.294700
v 0.399554 -0.583591 -0.294700
v 0.399554 -0.583591 0.596277
v 0.399554 0.897108 0.596277
v 0.423644 -0.876190 0.502283
v 0.423644 -0.876190 -0.243646
v 0.423644 -0.707401 0.502283
v 0.423644 -0.707401 -0.243646
v 0.437210 0.328243 -0.598430
v 0.437210 -0.682047 -0.579203
v 0.437210 0.156031 -0.353965
v 0.437210 0.115450 -0.353962
v 0.467361 0.243968 -0.473400
v 0.459473 0.251856 -0.465512
v 0.459473 0.251856 -0.612657
v 0.467361 0.243968 -0.604769
v 0.467361 0.019174 -0.604769
v 0.459473 0.011286 -0.612657
v 0.459473 0.011286 -0.465512
v 0.467361 0.019174 -0.473400
v 0.437210 0.328243 -0.476192
v 0.437210 -0.682047 -0.509215
v 0.437210 0.297010 -0.476192
v 0.437210 -0.612004 -0.509215
v 0.455445 0.139122 -0.396793
v 0.455445 0.132359 -0.396795
v 0.455445 0.139122 -0.363419
v 0.455445 0.132359 -0.363417
v 0.455445 0.156031 -0.353965
v 0.455445 0.115450 -0.353962
v 0.455445 0.156031 -0.406247
v 0.455445 0.115450 -0.406250
v 0.445564 0.139122 -0.396793
v 0.445564 0.132359 -0.396795
v 0.445564 0.139122 -0.363419
v 0.445564 0.132359 -0.363417
v 0.437210 1.000000 -0.705139
v 0.437210 0.897108 -0.294700
v 0.437210 0.251856 -0.612657
v 0.437210 0.251856 -0.465512
v 0.453939 0.328243 -0.598430
v 0.453939 0.328243 -0.476192
v 0.453939 0.297010 -0.598430
v 0.453939 0.297010 -0.476192
v 0.437210 -0.583591 -0.294700
v 0.437210 -1.000000 -0.705139
v 0.437210 0.011286 -0.465512
v 0.437210 0.011286 -0.612657
v 0.459256 -0.673351 -0.517911
v 0.459256 -0.673351 -0.570507
v 0.459256 -0.620700 -0.517911
v 0.459256 -0.620700 -0.570507
v 0.459256 -0.682047 -0.509215
v 0.459256 -0.682047 -0.579203
v 0.459256 -0.612004 -0.509215
v 0.459256 -0.612004 -0.579203
v 0.431106 -0.673351 -0.517911
v 0.431106 -0.673351 -0.570507
v 0.431106 -0.620700 -0.517911
v 0.431106 -0.620700 -0.570507
vn -1.0000 -0.0000 -0.0000
vn -0.0000 -0.0000 -1.0000
vn -0.0000 -0.0000 1.0000
vn -0.0000 -1.0000 -0.0000
vn -0.0000 1.0000 -0.0000
vn 1.0000 -0.0000 -0.0000
vn 0.7071 -0.0000 -0.7071
vn 0.7071 -0.0000 0.7071
vn 0.7071 0.7071 -0.0000
vn 0.7071 -0.7071 -0.0000
vn -0.0000 0.0001 -1.0000
vn -0.0000 0.0001 1.0000
vn -0.0000 -0.0003 -1.0000
vn -0.0000 -0.0003 1.0000
vt 0.375000 0.000000
vt 0.625000 0.000000
vt 0.625000 0.250000
vt 0.375000 0.250000
vt 0.625000 0.500000
vt 0.375000 0.500000
vt 0.592544 0.703972
vt 0.407456 0.703972
vt 0.375000 0.750000
vt 0.625000 0.750000
vt 0.625000 1.000000
vt 0.375000 1.000000
vt 0.125000 0.500000
vt 0.125000 0.750000
vt 0.875000 0.500000
vt 0.875000 0.750000
vt 0.461048 0.510371
vt 0.605769 0.510371
vt 0.384650 0.544503
vt 0.397806 0.563160
vt 0.592544 0.546028
vt 0.384650 0.713629
vt 0.397806 0.694972
vt 0.407456 0.546028
vt 0.553417 0.539255
vt 0.561117 0.542430
vt 0.601849 0.517005
vt 0.619964 0.506046
vt 0.391388 0.510432
vt 0.457298 0.521213
vt 0.587939 0.535657
vt 0.468151 0.535657
vt 0.584780 0.534301
vt 0.471885 0.534302
vt 0.465987 0.511727
vt 0.600255 0.511727
vt 0.456328 0.542430
vt 0.481120 0.539255
vt 0.483477 0.541856
vt 0.495227 0.539829
vt 0.537058 0.541856
vt 0.536219 0.539829
vt 0.595840 0.540228
vt 0.593412 0.529014
vt 0.410418 0.537277
vt 0.458217 0.525131
vt 0.451669 0.525520
vt 0.414487 0.533065
vt 0.401436 0.514475
vt 0.449728 0.520993
s 0
g Cube.001_Material.002
usemtl Material.002
f 1/1/1 2/2/1 4/3/1 3/4/1
f 3/4/2 4/3/2 53/5/2 62/6/2
f 6/7/2 15/8/2 19/8/2 20/7/2
f 13/9/3 12/10/3 2/11/3 1/12/3
f 3/13/4 62/6/4 13/9/4 1/14/4
f 53/5/5 4/15/5 2/16/5 12/10/5
f 10/19/3 7/20/3 24/20/3 22/19/3
f 6/7/6 54/21/6 53/5/6 12/10/6
f 15/8/6 6/7/6 12/10/6 13/9/6
f 10/19/6 11/22/6 13/9/6 62/6/6
f 5/23/6 7/20/6 61/24/6 15/8/6
f 7/20/6 10/19/6 62/6/6 61/24/6
f 11/22/6 5/23/6 15/8/6 13/9/6
f 15/8/5 61/24/5 18/24/5 19/8/5
f 54/21/4 6/7/4 20/7/4 17/21/4
f 61/24/3 54/21/3 17/21/3 18/24/3
f 11/22/5 10/19/5 22/19/5 21/22/5
f 5/23/2 11/22/2 21/22/2 23/23/2
f 7/20/4 5/23/4 23/23/4 24/20/4
f 55/18/6 64/17/6 62/6/6 53/5/6
f 28/37/6 27/26/6 54/21/6 61/24/6
f 8/25/6 16/38/6 63/32/6 56/31/6
f 16/38/6 28/37/6 61/24/6 63/32/6
f 27/26/6 8/25/6 56/31/6 54/21/6
f 37/43/6 25/28/6 53/5/6 54/21/6
f 9/27/6 39/44/6 56/31/6 55/18/6
f 25/28/6 9/27/6 55/18/6 53/5/6
f 39/44/6 37/43/6 54/21/6 56/31/6
f 26/29/6 38/45/6 61/24/6 62/6/6
f 40/46/6 14/30/6 64/17/6 63/32/6
f 14/30/6 26/29/6 62/6/6 64/17/6
f 38/45/6 40/46/6 63/32/6 61/24/6
g Cube.001_Material.003
usemtl Material.003
f 18/24/6 17/21/6 20/7/6 19/8/6
g Cube.001_Material.004
usemtl Material.004
f 64/17/2 55/18/2 31/18/2 34/17/2
f 24/20/6 23/23/6 21/22/6 22/19/6
f 8/25/5 27/26/5 45/26/5 47/25/5
f 9/27/2 25/28/2 57/28/2 59/27/2
f 26/29/2 14/30/2 72/30/2 70/29/2
f 55/18/5 56/31/5 30/31/5 31/18/5
f 63/32/4 64/17/4 34/17/4 35/32/4
f 29/33/6 36/34/6 33/35/6 32/36/6
f 32/36/7 33/35/7 34/17/7 31/18/7
f 30/31/8 35/32/8 36/34/8 29/33/8
f 31/18/9 30/31/9 29/33/9 32/36/9
f 35/32/10 34/17/10 33/35/10 36/34/10
f 56/31/3 63/32/3 35/32/3 30/31/3
f 44/39/5 42/40/5 50/40/5 52/39/5
f 16/38/11 8/25/11 47/25/11 48/38/11
f 28/37/4 16/38/4 48/38/4 46/37/4
f 27/26/12 28/37/12 46/37/12 45/26/12
f 44/39/6 43/41/6 45/26/6 46/37/6
f 41/42/6 42/40/6 48/38/6 47/25/6
f 42/40/6 44/39/6 46/37/6 48/38/6
f 43/41/6 41/42/6 47/25/6 45/26/6
f 50/40/6 49/42/6 51/41/6 52/39/6
f 43/41/13 44/39/13 52/39/13 51/41/13
f 41/42/4 43/41/4 51/41/4 49/42/4
f 42/40/14 41/42/14 49/42/14 50/40/14
f 60/44/6 59/27/6 57/28/6 58/43/6
f 25/28/5 37/43/5 58/43/5 57/28/5
f 37/43/3 39/44/3 60/44/3 58/43/3
f 39/44/4 9/27/4 59/27/4 60/44/4
f 67/47/2 65/48/2 73/48/2 75/47/2
f 38/45/4 26/29/4 70/29/4 69/45/4
f 40/46/3 38/45/3 69/45/3 71/46/3
f 14/30/5 40/46/5 71/46/5 72/30/5
f 66/49/6 65/48/6 69/45/6 70/29/6
f 67/47/6 68/50/6 72/30/6 71/46/6
f 68/50/6 66/49/6 70/29/6 72/30/6
f 65/48/6 67/47/6 71/46/6 69/45/6
f 76/50/6 75/47/6 73/48/6 74/49/6
f 68/50/4 67/47/4 75/47/4 76/50/4
f 66/49/3 68/50/3 76/50/3 74/49/3
f 65/48/5 66/49/5 74/49/5 73/48/5
