# Blender 4.0.2
# www.blender.org
mtllib puertaHospital.mtl
o Cube
v -0.091674 -1.187706 0.710479
v -0.091674 1.329881 0.710479
v -0.091674 -1.187706 -0.710479
v -0.091674 1.329881 -0.710479
v 0.091674 -1.187706 0.710479
v 0.091674 1.329880 0.710479
v 0.091674 -1.187706 -0.710479
v 0.091674 1.329880 -0.710479
v -0.091674 -1.187706 0.776374
v -0.091674 1.376475 0.757073
v -0.091674 1.376475 -0.757073
v -0.091674 -1.187706 -0.776374
v 0.091674 -1.187706 -0.776374
v 0.091674 1.376475 -0.757073
v 0.091674 1.376475 0.757073
v 0.091674 -1.187706 0.776374
v 0.035652 -0.026323 -0.575313
v 0.035652 -0.072517 -0.575313
v 0.035652 -0.072517 -0.526874
v 0.035652 -0.026323 -0.526874
v 0.035499 1.329880 -0.710479
v 0.034938 -1.187689 -0.710665
v 0.034664 -1.187149 0.710987
v 0.035499 1.329880 0.710479
v 0.035499 1.266567 -0.647165
v 0.035499 -1.124392 -0.647165
v 0.035499 -1.124392 0.647165
v 0.035499 1.266567 0.647165
v -0.091674 -1.187706 0.710479
v -0.091674 -1.187706 -0.710479
v 0.034847 -1.187281 0.711199
v 0.066165 -0.026323 -0.575313
v 0.066165 -0.072517 -0.575313
v 0.066165 -0.072517 -0.526874
v 0.066165 -0.026323 -0.526874
v 0.107864 -0.026323 -0.575313
v 0.107864 -0.072517 -0.575313
v 0.107864 -0.072517 -0.526874
v 0.107864 -0.026323 -0.526874
v 0.083025 -0.043183 -0.337006
v 0.066165 -0.026323 -0.353865
v 0.066165 -0.072517 -0.353865
v 0.083025 -0.055657 -0.337006
v 0.107864 -0.026323 -0.353865
v 0.091005 -0.043183 -0.337006
v 0.091005 -0.055657 -0.337006
v 0.107864 -0.072517 -0.353865
vn -1.0000 -0.0000 -0.0000
vn 1.0000 -0.0000 -0.0000
vn -0.0000 -1.0000 -0.0000
vn -0.0000 1.0000 -0.0000
vn 0.0034 -1.0000 -0.0000
vn -0.0000 0.0075 -1.0000
vn -0.0000 0.0075 1.0000
vn -0.0001 -1.0000 0.0002
vn -0.0017 -0.0000 1.0000
vn -0.0045 -0.0001 -1.0000
vn 1.0000 -0.0001 -0.0044
vn 0.9999 -0.0111 0.0001
vn 1.0000 -0.0002 0.0066
vn 1.0000 -0.0000 -0.0021
vn 1.0000 -0.0001 -0.0000
vn 1.0000 0.0001 -0.0000
vn 1.0000 -0.0000 0.0001
vn 0.0023 -1.0000 0.0002
vn -0.0018 -1.0000 -0.0050
vn 0.0001 -1.0000 -0.0000
vn -0.0000 -0.0000 -1.0000
vn -0.0000 -0.0000 1.0000
vn -0.7071 -0.0000 0.7071
vn 0.7071 -0.0000 0.7071
vn -0.0000 -0.7071 0.7071
vn -0.0000 0.7071 0.7071
vt 0.375000 0.000000
vt 0.625000 0.000000
vt 0.625000 0.250000
vt 0.375000 0.250000
vt 0.625000 0.500000
vt 0.375000 0.500000
vt 0.625000 0.750000
vt 0.125000 0.750000
vt 0.296439 0.750000
vt 0.375000 0.750000
vt 0.625000 1.000000
vt 0.375000 1.000000
vt 0.875000 0.500000
vt 0.875000 0.750000
vt 0.296809 0.500000
vt 0.125000 0.500000
vt 0.565299 0.605776
vt 0.565299 0.644224
vt 0.618713 0.511139
vt 0.381287 0.511139
vt 0.381287 0.738861
vt 0.618713 0.738861
vt 0.434701 0.605776
vt 0.434701 0.644224
vt 0.434701 0.644224
vt 0.482367 0.644224
vt 0.517633 0.644224
vt 0.517633 0.644224
vt 0.482367 0.644224
s 0
g Cube_Material
usemtl Material
f 8/5/3 6/7/3 24/7/3 21/5/3
f 1/1/4 3/4/4 30/4/4 29/1/4
f 1/8/5 31/9/5 9/8/5
f 7/6/8 22/15/8 12/16/8 13/6/8
f 25/19/11 26/20/11 22/6/11 21/5/11
f 26/20/12 27/21/12 23/10/12 22/6/12
f 28/22/2 25/19/2 21/5/2 24/7/2
f 27/21/13 28/22/13 24/7/13 23/10/13
f 17/17/14 18/23/14 26/20/14 25/19/14
f 18/23/15 19/24/15 27/21/15 26/20/15
f 20/18/16 17/17/16 25/19/16 28/22/16
f 19/24/17 20/18/17 28/22/17 27/21/17
f 29/1/18 30/4/18 22/4/18 23/1/18
f 9/8/19 31/9/19 5/10/19 16/10/19
f 12/16/20 22/15/20 3/16/20
g Cube_Material.001
usemtl Material.001
f 1/1/1 2/2/1 4/3/1 3/4/1
f 8/5/2 7/6/2 13/6/2 14/5/2
f 6/7/2 8/5/2 14/5/2 15/7/2
f 12/4/6 11/3/6 14/5/6 13/6/6
f 16/10/7 15/7/7 10/11/7 9/12/7
f 14/5/4 11/13/4 10/14/4 15/7/4
f 4/3/1 2/2/1 10/2/1 11/3/1
f 5/10/2 6/7/2 15/7/2 16/10/2
f 3/4/1 4/3/1 11/3/1 12/4/1
f 2/2/1 1/1/1 9/1/1 10/2/1
f 17/17/4 20/18/4 35/18/4 32/17/4
f 7/6/9 8/5/9 21/5/9 22/6/9
f 6/7/10 5/10/10 23/10/10 24/7/10
f 34/24/3 38/24/3 47/24/3 42/25/3
f 18/23/21 17/17/21 32/17/21 33/23/21
f 20/18/22 19/24/22 34/24/22 35/18/22
f 19/24/3 18/23/3 33/23/3 34/24/3
f 37/23/2 36/17/2 39/18/2 38/24/2
f 34/24/3 33/23/3 37/23/3 38/24/3
f 32/17/4 35/18/4 39/18/4 36/17/4
f 33/23/21 32/17/21 36/17/21 37/23/21
f 39/18/4 35/18/4 41/18/4 44/18/4
f 38/24/2 39/18/2 44/18/2 47/25/2
f 35/18/1 34/24/1 42/24/1 41/18/1
f 41/18/23 42/24/23 43/26/23 40/27/23
f 45/28/24 46/29/24 47/25/24 44/18/24
f 42/25/25 47/24/25 46/29/25 43/26/25
f 44/18/26 41/18/26 40/27/26 45/28/26
f 40/27/22 43/26/22 46/29/22 45/28/22
