# Blender 4.0.2
# www.blender.org
mtllib wetFloorCartel.mtl
o Cube
v 0.071285 0.097058 -0.000309
v 0.105582 0.027720 -0.044711
v 0.071285 0.097058 0.000731
v 0.105582 0.027720 0.044359
v -0.017042 0.205726 -0.112514
v 0.176648 -0.195051 -0.112532
v -0.016929 0.205726 0.112548
v 0.176648 -0.195051 0.112532
v -0.139378 0.027713 -0.043621
v -0.105149 0.096982 -0.000223
v -0.139408 0.027713 0.045353
v -0.105144 0.096979 0.000811
v -0.210502 -0.195051 0.113611
v -0.210318 -0.195051 -0.111449
v 0.002499 0.237250 0.112532
v 0.002499 0.237250 -0.112532
v -0.017042 0.233991 -0.112514
v -0.036341 0.237250 -0.112307
v -0.016929 0.233991 0.112548
v -0.036352 0.237250 0.112753
v 0.017535 0.205726 0.112532
v 0.017535 0.205726 -0.112532
v 0.208219 -0.179782 -0.112532
v 0.208219 -0.179782 0.112532
v -0.242073 -0.179782 0.113781
v -0.241889 -0.179782 -0.111279
v -0.051372 0.205726 -0.112307
v -0.051391 0.205726 0.112753
v 0.068593 0.102500 0.004278
v 0.068593 0.102500 -0.003825
v 0.108274 0.022278 -0.055197
v 0.108274 0.022278 0.054754
v -0.142102 0.022269 0.055862
v -0.142066 0.022270 -0.053994
v -0.102456 0.102426 -0.003776
v -0.102454 0.102421 0.004320
vn -0.8964 0.4432 -0.0002
vn 0.8963 0.4434 -0.0000
vn 0.0002 0.0001 1.0000
vn -0.9004 -0.4350 0.0002
vn -0.0007 -0.0002 -1.0000
vn 0.4354 -0.9003 -0.0000
vn -0.4354 -0.9002 -0.0004
vn -0.0076 0.0019 -1.0000
vn 0.9006 -0.4347 0.0001
vn -0.0057 0.0001 -1.0000
vn -0.0002 -0.0001 -1.0000
vn 0.0057 -0.0001 1.0000
vn -0.1650 0.9863 -0.0000
vn 0.1660 0.9861 -0.0000
vn 0.0075 -0.0019 1.0000
vn 0.0006 0.0001 1.0000
vn 0.9026 0.4305 -0.0000
vn -0.9026 0.4305 -0.0001
vn -0.8964 0.4432 -0.0006
vn -0.8964 0.4432 -0.0001
vn -0.8964 0.4433 -0.0004
vn -0.8965 0.4431 -0.0004
vn -0.8964 0.4432 -0.0003
vn -0.8964 0.4432 0.0011
vn -0.8964 0.4433 -0.0002
vn -0.8965 0.4431 -0.0002
vt 0.399502 0.117423
vt 0.399502 0.132716
vt 0.482366 0.202301
vt 0.482366 0.047739
vt 0.399494 0.117350
vt 0.399494 0.132738
vt 0.482372 0.202307
vt 0.482372 0.047719
vt 0.375000 0.250000
vt 0.375000 0.500000
vt 0.625000 0.500000
vt 0.625000 0.250000
vt 0.375000 0.750000
vt 0.625000 0.750000
vt 0.375000 1.000000
vt 0.875000 0.750000
vt 0.875000 0.500000
vt 0.625000 1.000000
vt 0.125000 0.500000
vt 0.125000 0.750000
vt 0.375000 0.000000
vt 0.392989 0.034376
vt 0.392989 0.215624
vt 0.488877 0.215624
vt 0.625000 0.000000
vt 0.488877 0.034376
vt 0.488877 0.215624
vt 0.488877 0.034376
vt 0.392990 0.034376
vt 0.392991 0.215624
s 0
g Cube_Material.003
usemtl Material.003
f 21/9/3 7/10/3 8/11/3 24/12/3
f 7/10/4 5/13/4 6/14/4 8/11/4
f 5/13/5 17/13/5 16/15/5 22/15/5
f 8/11/6 6/14/6 23/16/6 24/17/6
f 14/11/7 13/14/7 25/16/7 26/17/7
f 27/9/8 18/9/8 17/10/8 5/10/8
f 5/10/9 7/13/9 13/14/9 14/11/9
f 27/9/10 5/10/10 14/11/10 26/12/10
f 5/13/11 22/15/11 23/18/11 6/14/11
f 7/13/12 28/15/12 25/18/12 13/14/12
f 15/19/13 16/20/13 17/13/13 19/10/13
f 18/19/14 20/20/14 19/13/14 17/10/14
f 7/13/15 19/13/15 20/15/15 28/15/15
f 21/9/16 15/9/16 19/10/16 7/10/16
f 22/21/17 16/21/17 15/9/17 21/9/17
f 28/21/18 20/21/18 18/9/18 27/9/18
f 30/22/2 22/21/2 21/9/2 29/23/2
f 32/24/2 24/12/2 23/25/2 31/26/2
f 34/27/19 26/12/19 25/25/19 33/28/19
f 36/29/20 28/21/20 27/9/20 35/30/20
f 31/26/2 23/25/2 22/21/2 30/22/2
f 29/23/2 21/9/2 24/12/2 32/24/2
f 33/28/21 25/25/21 28/21/21 36/29/21
f 35/30/22 27/9/22 26/12/22 34/27/22
g Cube_Material.004
usemtl Material.004
f 1/5/2 30/22/2 29/23/2 3/6/2
f 4/7/2 32/24/2 31/26/2 2/8/2
f 9/3/23 34/27/23 33/28/23 11/4/23
f 12/1/24 36/29/24 35/30/24 10/2/24
f 2/8/2 31/26/2 30/22/2 1/5/2
f 3/6/2 29/23/2 32/24/2 4/7/2
f 11/4/25 33/28/25 36/29/25 12/1/25
f 10/2/26 35/30/26 34/27/26 9/3/26
g Cube_Material.005
usemtl Material.005
f 12/1/1 10/2/1 9/3/1 11/4/1
f 1/5/2 3/6/2 4/7/2 2/8/2
