# Blender 4.0.2
# www.blender.org
mtllib cartelHospital.mtl
o Cube
v -0.091319 0.434499 1.924191
v -0.091319 2.434499 1.924191
v -0.091319 0.434499 -1.924191
v -0.091319 2.434499 -1.924191
v 0.108244 1.216118 1.170407
v 0.108244 1.652881 1.170407
v 0.108244 0.434499 -1.924191
v 0.108244 2.434499 -1.924191
v -0.091319 0.434499 0.000000
v -0.091319 2.434499 0.000000
v 0.108244 1.216118 0.753784
v 0.108244 1.652881 0.753784
v 0.073715 -0.591457 1.518528
v -0.056789 -0.591457 1.518528
v -0.056789 -0.591457 1.687077
v 0.073715 -0.591457 1.687077
v 0.073715 -0.591457 -1.687077
v -0.056789 -0.591457 -1.687077
v -0.056789 -0.591457 -1.518528
v 0.073715 -0.591457 -1.518528
v 0.108244 2.434499 0.000000
v 0.108244 2.434499 1.924191
v 0.108244 0.434499 1.924191
v 0.108244 0.434499 0.000000
v 0.108244 1.899701 1.170407
v 0.108244 1.899701 0.753784
v 0.108244 2.187679 0.753784
v 0.108244 2.187679 1.170407
v 0.108244 1.215303 1.389393
v 0.108244 1.654520 1.389393
v 0.108244 1.654189 1.677370
v 0.108244 1.215869 1.677370
v 0.108244 0.969297 0.753784
v 0.108244 0.969297 1.170407
v 0.108244 0.681320 1.170407
v 0.108244 0.681320 0.753784
v 0.108244 1.654520 0.534798
v 0.108244 1.215303 0.534798
v 0.108244 1.215870 0.246821
v 0.108244 1.654189 0.246821
v 0.236736 1.652881 0.753784
v 0.236736 1.652881 1.170407
v 0.236736 1.216118 1.170407
v 0.236736 1.216118 0.753784
v 0.236736 1.899701 0.753784
v 0.236736 1.899701 1.170407
v 0.236736 2.187679 1.170407
v 0.236736 2.187679 0.753784
v 0.236736 1.654520 1.389393
v 0.236736 1.215303 1.389393
v 0.236736 1.215869 1.677370
v 0.236736 1.654189 1.677370
v 0.236736 0.969297 1.170407
v 0.236736 0.969297 0.753784
v 0.236736 0.681320 0.753784
v 0.236736 0.681320 1.170407
v 0.236736 1.654520 0.534798
v 0.236736 1.215303 0.534798
v 0.236736 1.654189 0.246821
v 0.236736 1.215870 0.246821
v 0.108244 1.212348 -1.546644
v 0.108244 1.656651 -1.546644
v 0.108244 1.656651 -0.238449
v 0.108244 1.212348 -0.238449
v 0.108244 2.252477 -1.678009
v 0.108244 2.252477 -0.246181
v 0.108244 1.838673 -0.373033
v 0.108244 1.838673 -1.321295
v 0.108244 0.616521 -0.246181
v 0.108244 0.616521 -1.678010
v 0.108244 1.030326 -1.321295
v 0.108244 1.030326 -0.373033
v 0.108244 0.863275 -1.859946
v 0.108244 2.005724 -1.859946
v 0.108244 1.458670 -1.749987
v 0.108244 1.410329 -1.749987
v 0.108244 1.656651 -1.321325
v 0.108244 1.212348 -1.321327
v 0.238658 1.656651 -1.546644
v 0.238658 1.212348 -1.546644
v 0.238658 1.212348 -1.321327
v 0.238658 1.656651 -1.321325
v 0.238658 1.656651 -0.238449
v 0.238658 1.212348 -0.238449
v 0.238658 1.838673 -1.321295
v 0.238658 1.030326 -1.321295
v 0.238658 1.458670 -1.749987
v 0.238658 1.410329 -1.749987
v -0.091319 0.328316 0.000000
v -0.091319 0.327399 2.031291
v -0.091319 2.541600 2.031291
v -0.091319 2.540682 0.000000
v -0.091319 2.541600 -2.031291
v -0.091319 0.327399 -2.031291
v 0.108244 0.327399 -2.031291
v 0.108244 2.541600 -2.031291
v 0.108244 0.328316 0.000000
v 0.108244 2.540682 0.000000
v 0.108244 2.541600 2.031291
v 0.108244 0.327399 2.031291
v 0.073715 0.283036 1.518528
v -0.056789 0.283036 1.518528
v -0.056789 0.283036 1.687077
v 0.073715 0.283036 1.687077
v 0.073715 0.283036 -1.687077
v -0.056789 0.283036 -1.687077
v -0.056789 0.283036 -1.518528
v 0.073715 0.283036 -1.518528
vn -1.0000 -0.0000 -0.0000
vn -0.0000 -0.0000 1.0000
vn 1.0000 -0.0000 -0.0000
vn -0.0000 -0.0000 -1.0000
vn -0.0000 -1.0000 -0.0000
vn -0.0000 1.0000 0.0075
vn -0.0000 1.0000 -0.0075
vn -0.0000 -1.0000 -0.0037
vn -0.0000 -1.0000 0.0037
vn -0.0000 -1.0000 0.0020
vn -0.0000 1.0000 0.0012
vn -0.0000 1.0000 -0.0011
vn -0.0000 1.0000 -0.0000
vn -0.0000 -1.0000 -0.0020
vn -0.0000 0.7165 -0.6976
vn -0.0000 -0.0002 1.0000
vn -0.0000 -0.7165 -0.6976
vn -0.0000 0.0002 1.0000
vn -0.0000 0.7779 -0.6284
vn -0.0000 -0.7779 -0.6284
vn -0.0000 1.0000 -0.0005
vn -0.0000 1.0000 0.0005
vn -0.0000 -0.9996 -0.0298
vn 0.7906 -0.6124 -0.0003
vn -0.0000 -0.9918 0.1278
vn -0.7906 -0.6124 -0.0003
vn -0.0000 -0.9918 -0.1278
vn 0.7906 -0.6124 0.0003
vn -0.0000 -0.9996 0.0298
vn -0.7906 -0.6124 0.0003
vt 0.375000 0.125000
vt 0.625000 0.125000
vt 0.625000 0.250000
vt 0.375000 0.250000
vt 0.472702 0.699224
vt 0.441850 0.692583
vt 0.375000 0.500000
vt 0.375000 0.625000
vt 0.331744 0.627243
vt 0.331744 0.747757
vt 0.375000 0.750000
vt 0.168256 0.502243
vt 0.331744 0.502243
vt 0.431628 0.511317
vt 0.568372 0.511317
vt 0.375000 0.000000
vt 0.625000 0.000000
vt 0.625000 0.500000
vt 0.168256 0.627243
vt 0.168256 0.747757
vt 0.331744 0.622757
vt 0.168256 0.622757
vt 0.514518 0.659742
vt 0.527298 0.675776
vt 0.527298 0.699224
vt 0.514518 0.715258
vt 0.441850 0.682417
vt 0.472702 0.675776
vt 0.558150 0.682417
vt 0.449485 0.641034
vt 0.550515 0.641034
vt 0.625000 0.625000
vt 0.594147 0.663710
vt 0.625000 0.750000
vt 0.594147 0.711290
vt 0.558150 0.692583
vt 0.485482 0.715258
vt 0.550515 0.733966
vt 0.449485 0.733966
vt 0.405853 0.711290
vt 0.405853 0.663710
vt 0.485482 0.659742
vt 0.411104 0.504173
vt 0.588896 0.504173
vt 0.618025 0.515993
vt 0.618025 0.609007
vt 0.602169 0.600767
vt 0.602169 0.524233
vt 0.404806 0.609510
vt 0.595194 0.609510
vt 0.381975 0.609007
vt 0.381975 0.515992
vt 0.397831 0.524233
vt 0.397831 0.600767
vt 0.595194 0.531684
vt 0.595194 0.515490
vt 0.404806 0.515490
vt 0.404806 0.531684
vt 0.625000 1.000000
vt 0.375000 1.000000
vt 0.875000 0.625000
vt 0.875000 0.750000
vt 0.875000 0.500000
vt 0.125000 0.625000
vt 0.125000 0.750000
vt 0.125000 0.500000
s 0
g Cube_Material.001
usemtl Material.001
f 9/1/1 10/2/1 4/3/1 3/4/1
f 1/16/1 2/17/1 10/2/1 9/1/1
f 12/24/3 21/32/3 27/33/3 26/29/3
f 21/32/3 22/34/3 28/35/3 27/33/3
f 22/34/3 6/25/3 25/36/3 28/35/3
f 6/25/3 22/34/3 31/38/3 30/26/3
f 22/34/3 23/11/3 32/39/3 31/38/3
f 23/11/3 5/5/3 29/37/3 32/39/3
f 5/5/3 23/11/3 35/40/3 34/6/3
f 23/11/3 24/8/3 36/41/3 35/40/3
f 24/8/3 11/28/3 33/27/3 36/41/3
f 11/28/3 24/8/3 39/30/3 38/42/3
f 24/8/3 21/32/3 40/31/3 39/30/3
f 21/32/3 12/24/3 37/23/3 40/31/3
f 73/43/3 74/44/3 75/15/3 76/14/3
f 65/45/3 66/46/3 67/47/3 68/48/3
f 21/32/3 24/8/3 64/49/3 63/50/3
f 69/51/3 70/52/3 71/53/3 72/54/3
f 8/18/3 21/32/3 66/46/3 65/45/3
f 21/32/3 63/50/3 67/47/3 66/46/3
f 63/50/3 77/55/3 68/48/3 67/47/3
f 62/56/3 8/18/3 65/45/3 68/48/3
f 24/8/3 7/7/3 70/52/3 69/51/3
f 7/7/3 61/57/3 71/53/3 70/52/3
f 64/49/3 24/8/3 69/51/3 72/54/3
f 7/7/3 8/18/3 74/44/3 73/43/3
f 8/18/3 62/56/3 75/15/3 74/44/3
f 61/57/3 7/7/3 73/43/3 76/14/3
f 71/53/3 78/58/3 64/49/3 72/54/3
g Cube_Material.002
usemtl Material.002
f 5/5/2 34/6/2 53/6/2 43/5/2
f 37/23/6 12/24/6 41/24/6 57/23/6
f 6/25/7 30/26/7 49/26/7 42/25/7
f 33/27/4 11/28/4 44/28/4 54/27/4
f 12/24/4 26/29/4 45/29/4 41/24/4
f 39/30/4 40/31/4 59/31/4 60/30/4
f 29/37/8 5/5/8 43/5/8 50/37/8
f 35/40/5 36/41/5 55/41/5 56/40/5
f 25/36/2 6/25/2 42/25/2 46/36/2
f 44/28/3 41/24/3 42/25/3 43/5/3
f 46/36/3 45/29/3 48/33/3 47/35/3
f 50/37/3 49/26/3 52/38/3 51/39/3
f 54/27/3 53/6/3 56/40/3 55/41/3
f 57/23/3 58/42/3 60/30/3 59/31/3
f 42/25/3 41/24/3 45/29/3 46/36/3
f 43/5/3 42/25/3 49/26/3 50/37/3
f 44/28/3 43/5/3 53/6/3 54/27/3
f 41/24/3 44/28/3 58/42/3 57/23/3
f 11/28/9 38/42/9 58/42/9 44/28/9
f 28/35/2 25/36/2 46/36/2 47/35/2
f 32/39/10 29/37/10 50/37/10 51/39/10
f 26/29/4 27/33/4 48/33/4 45/29/4
f 36/41/4 33/27/4 54/27/4 55/41/4
f 30/26/11 31/38/11 52/38/11 49/26/11
f 40/31/12 37/23/12 57/23/12 59/31/12
f 27/33/13 28/35/13 47/35/13 48/33/13
f 34/6/2 35/40/2 56/40/2 53/6/2
f 31/38/2 32/39/2 51/39/2 52/38/2
f 38/42/14 39/30/14 60/30/14 58/42/14
g Cube_Material.003
usemtl Material.003
f 76/14/4 75/15/4 87/15/4 88/14/4
f 63/50/2 64/49/2 84/49/2 83/50/2
f 75/15/15 62/56/15 79/56/15 87/15/15
f 80/57/3 79/56/3 82/55/3 81/58/3
f 64/49/5 78/58/5 81/58/5 84/49/5
f 77/55/13 63/50/13 83/50/13 82/55/13
f 80/57/3 81/58/3 86/53/3
f 79/56/3 80/57/3 88/14/3 87/15/3
f 85/48/3 82/55/3 79/56/3
f 81/58/3 82/55/3 83/50/3 84/49/3
f 68/48/16 77/55/16 82/55/16 85/48/16
f 61/57/17 76/14/17 88/14/17 80/57/17
f 78/58/18 71/53/18 86/53/18 81/58/18
f 62/56/19 68/48/19 85/48/19 79/56/19
f 71/53/20 61/57/20 80/57/20 86/53/20
g Cube_Material.004
usemtl Material.004
f 13/9/3 101/9/3 104/10/3 16/10/3
f 18/12/4 106/12/4 105/13/4 17/13/4
f 14/19/5 13/9/5 16/10/5 15/20/5
f 18/12/5 17/13/5 20/21/5 19/22/5
f 20/21/2 108/21/2 107/22/2 19/22/2
f 19/22/1 107/22/1 106/12/1 18/12/1
f 16/10/2 104/10/2 103/20/2 15/20/2
f 15/20/1 103/20/1 102/19/1 14/19/1
f 17/13/3 105/13/3 108/21/3 20/21/3
f 14/19/4 102/19/4 101/9/4 13/9/4
g Cube_Material.005
usemtl Material.005
f 7/7/3 24/8/3 97/8/3 95/7/3
f 24/8/3 23/11/3 100/11/3 97/8/3
f 8/18/3 7/7/3 95/7/3 96/18/3
f 10/2/1 2/17/1 91/17/1 92/2/1
f 9/1/1 3/4/1 94/4/1 89/1/1
f 3/4/1 4/3/1 93/3/1 94/4/1
f 4/3/1 10/2/1 92/2/1 93/3/1
f 94/4/4 93/3/4 96/18/4 95/7/4
f 100/11/2 99/34/2 91/59/2 90/60/2
f 98/32/21 92/61/21 91/62/21 99/34/21
f 96/18/22 93/63/22 92/61/22 98/32/22
f 89/64/23 97/8/23 101/9/23 102/19/23
f 97/8/24 100/11/24 104/10/24 101/9/24
f 100/11/25 90/65/25 103/20/25 104/10/25
f 90/65/26 89/64/26 102/19/26 103/20/26
f 94/66/27 95/7/27 105/13/27 106/12/27
f 95/7/28 97/8/28 108/21/28 105/13/28
f 97/8/29 89/64/29 107/22/29 108/21/29
f 89/64/30 94/66/30 106/12/30 107/22/30
f 1/16/1 9/1/1 89/1/1 90/16/1
f 21/32/3 8/18/3 96/18/3 98/32/3
f 22/34/3 21/32/3 98/32/3 99/34/3
f 2/17/1 1/16/1 90/16/1 91/17/1
f 23/11/3 22/34/3 99/34/3 100/11/3
