# Blender v2.93.0 OBJ File: ''
# www.blender.org
mtllib MailBox.mtl
o Cube
v 1.000000 0.000000 -1.000000
v 1.000000 2.000000 0.500000
v 1.000000 0.000000 1.000000
v 1.000000 2.000000 -0.500000
v -1.000000 0.000000 -1.000000
v 1.000000 2.500000 0.000000
v -1.000000 0.000000 1.000000
v -1.000000 1.000000 0.000000
v 1.000000 4.000000 0.000000
v -1.000000 4.000000 0.000000
v 1.000000 1.000000 0.000000
v -1.000000 4.000000 -0.500000
v 1.000000 0.000000 -0.500000
v -1.000000 0.000000 -0.500000
v 1.000000 4.000000 -0.500000
v -1.000000 0.000000 0.500000
v 1.000000 4.000000 0.500000
v -1.000000 4.000000 0.500000
v 1.000000 0.000000 0.500000
v -1.000000 4.000000 0.491660
v 1.000000 4.000000 0.491660
v 1.000000 4.000000 -0.493678
v -1.000000 4.000000 -0.493678
v 1.000000 3.639071 -1.000000
v 1.000000 4.000000 -0.639072
v 1.000000 3.894286 -0.894287
v 1.000000 4.000000 0.639072
v 1.000000 3.639071 1.000000
v 1.000000 3.894286 0.894287
v -1.000000 4.000000 -0.639072
v -1.000000 3.639071 -1.000000
v -1.000000 3.894286 -0.894287
v -1.000000 3.639071 1.000000
v -1.000000 4.000000 0.639072
v -1.000000 3.894286 0.894287
v 1.000000 3.000000 -0.500000
v 1.000000 3.000000 0.500000
v 1.000000 3.250000 0.000000
v 0.003314 2.500000 0.000000
v 0.003314 3.250000 0.000000
v 0.000000 0.000000 -1.000000
v 0.000000 0.000000 1.000000
v 0.000000 1.000000 0.000000
v 0.000000 3.741402 0.000000
v 0.000000 4.000000 -0.500000
v 0.000000 0.000000 -0.500000
v 0.000000 0.000000 0.500000
v 0.000000 4.000000 0.500000
v 0.000000 4.000000 0.491660
v 0.000000 4.000000 -0.493678
v 0.000000 4.000000 0.639072
v 0.000000 3.894286 0.894287
v 0.000000 3.639071 1.000000
v 0.000000 4.000000 -0.639072
v 0.000000 3.894286 -0.894287
v 0.000000 3.639071 -1.000000
v -0.500000 0.000000 -1.000000
v -0.500000 1.000000 0.000000
v -0.500000 0.000000 -0.500000
v -0.500000 0.000000 0.500000
v -0.500000 4.000000 0.639072
v -0.500000 3.894286 -0.894287
v -0.500000 3.639071 -1.000000
v -0.500000 0.000000 1.000000
v -0.500000 4.000000 0.000000
v -0.500000 4.000000 -0.500000
v -0.500000 4.000000 0.500000
v -0.500000 4.000000 0.491660
v -0.500000 4.000000 -0.493678
v -0.500000 3.894286 0.894287
v -0.500000 3.639071 1.000000
v -0.500000 4.000000 -0.639072
v 0.500000 0.000000 1.000000
v 0.500000 4.000000 0.000000
v 0.500000 4.000000 -0.500000
v 0.500000 4.000000 0.500000
v 0.500000 4.000000 0.491660
v 0.500000 4.000000 -0.493678
v 0.500000 3.894286 0.894287
v 0.500000 3.639071 1.000000
v 0.500000 4.000000 -0.639072
v 0.500000 0.000000 -1.000000
v 0.500000 1.000000 0.000000
v 0.500000 0.000000 -0.500000
v 0.500000 0.000000 0.500000
v 0.500000 4.000000 0.639072
v 0.500000 3.894286 -0.894287
v 0.500000 3.639071 -1.000000
v 1.000000 1.819536 0.900000
v -1.000000 1.819536 0.900000
v 0.000000 1.819536 0.900000
v -0.500000 1.819536 0.900000
v 0.500000 1.819536 0.900000
v 1.000000 1.819536 -0.900000
v -1.000000 1.819536 -0.900000
v 0.000000 1.819536 -0.900000
v -0.500000 1.819536 -0.900000
v 0.500000 1.819536 -0.900000
v 1.000000 2.500000 0.282011
v 1.000000 2.709649 0.491660
v 1.000000 2.290380 0.495156
v 1.000000 2.290351 0.491660
v 1.000000 2.561405 0.430255
v 1.000000 2.709649 -0.493678
v 1.000000 2.500000 -0.284029
v 1.000000 2.290351 -0.493678
v 1.000000 2.290368 -0.496329
v 1.000000 2.561405 -0.432273
v 1.000000 3.040351 0.491660
v 1.000000 3.250000 0.282011
v 1.000000 3.459649 0.491660
v 1.000000 3.040468 0.498650
v 1.000000 3.188595 0.430255
v 1.000000 3.250000 -0.284029
v 1.000000 3.040351 -0.493678
v 1.000000 3.040418 -0.498978
v 1.000000 3.459649 -0.493678
v 1.000000 3.188595 -0.432273
v 0.003314 2.709649 0.491660
v 0.003314 2.500000 0.282011
v 0.003314 2.561405 0.430255
v 0.003314 3.250000 0.282011
v 0.003314 3.040351 0.491660
v 0.003314 3.188595 0.430255
v 0.003314 3.040351 -0.493678
v 0.003314 3.250000 -0.284029
v 0.003314 3.188595 -0.432273
v 0.003314 2.500000 -0.284029
v 0.003314 2.709649 -0.493678
v 0.003314 2.561405 -0.432273
v 1.000000 0.737455 0.493850
v 1.000000 1.000000 0.229106
v 1.000000 1.262554 0.491660
v 1.000000 0.923102 0.415401
v -1.000000 1.000000 0.229106
v -1.000000 0.737455 0.493850
v -1.000000 1.262554 0.491660
v -1.000000 0.923102 0.415401
v -1.000000 0.737451 -0.495338
v -1.000000 1.000000 -0.231124
v -1.000000 1.262554 -0.493678
v -1.000000 0.923101 -0.417264
v 1.000000 1.000000 -0.231124
v 1.000000 0.737451 -0.495338
v 1.000000 1.262554 -0.493678
v 1.000000 0.923101 -0.417264
v 0.000000 0.737455 0.493850
v 0.000000 1.000000 0.229106
v 0.000000 0.923102 0.415401
v 0.000000 1.000000 -0.231124
v 0.000000 0.737451 -0.495338
v 0.000000 0.923101 -0.417264
v -0.500000 1.000000 0.229106
v -0.500000 0.737455 0.493850
v -0.500000 0.923102 0.415401
v -0.500000 0.737451 -0.495338
v -0.500000 1.000000 -0.231124
v -0.500000 0.923101 -0.417264
v 0.500000 1.000000 0.229106
v 0.500000 0.737455 0.493850
v 0.500000 0.923102 0.415401
v 0.500000 0.737451 -0.495338
v 0.500000 1.000000 -0.231124
v 0.500000 0.923101 -0.417264
vt 0.375000 0.187500
vt 0.625000 0.187500
vt 0.625000 0.204884
vt 0.618393 0.236786
vt 0.602442 0.250000
vt 0.488721 0.250000
vt 0.375000 0.250000
vt 0.812500 0.687500
vt 0.875000 0.687500
vt 0.875000 0.704884
vt 0.812500 0.704884
vt 0.375000 0.000000
vt 0.488721 0.000000
vt 0.602442 0.000000
vt 0.618393 0.013214
vt 0.625000 0.045116
vt 0.625000 0.062500
vt 0.375000 0.062500
vt 0.312500 0.687500
vt 0.375000 0.687500
vt 0.375000 0.750000
vt 0.312500 0.750000
vt 0.488721 0.937500
vt 0.602442 0.937500
vt 0.602442 1.000000
vt 0.488721 1.000000
vt 0.812500 0.545116
vt 0.875000 0.545116
vt 0.875000 0.562500
vt 0.812500 0.562500
vt 0.500000 0.625000
vt 0.562500 0.625000
vt 0.562500 0.660251
vt 0.560794 0.683899
vt 0.545029 0.686458
vt 0.517471 0.686458
vt 0.501706 0.683899
vt 0.500000 0.660251
vt 0.312500 0.562500
vt 0.375000 0.562500
vt 0.375000 0.563083
vt 0.312500 0.563083
vt 0.625000 0.063543
vt 0.396879 0.063543
vt 0.375000 0.063269
vt 0.812500 0.563290
vt 0.875000 0.563290
vt 0.875000 0.625000
vt 0.812500 0.625000
vt 0.500000 0.687500
vt 0.562500 0.687500
vt 0.625000 0.687500
vt 0.625000 0.704884
vt 0.618393 0.736786
vt 0.602442 0.750000
vt 0.488721 0.750000
vt 0.312500 0.500000
vt 0.375000 0.500000
vt 0.488721 0.437500
vt 0.602442 0.437500
vt 0.602442 0.500000
vt 0.488721 0.500000
vt 0.500000 0.562500
vt 0.500000 0.562959
vt 0.482529 0.563290
vt 0.396879 0.563290
vt 0.500000 0.625000
vt 0.500000 0.589496
vt 0.500000 0.589496
vt 0.562500 0.562500
vt 0.625000 0.562500
vt 0.625000 0.563290
vt 0.579971 0.563290
vt 0.562500 0.562628
vt 0.312500 0.625000
vt 0.375000 0.625000
vt 0.375000 0.653638
vt 0.312500 0.653638
vt 0.812500 0.686458
vt 0.875000 0.686458
vt 0.375000 0.686731
vt 0.396879 0.686458
vt 0.482529 0.686458
vt 0.500000 0.686895
vt 0.562500 0.625000
vt 0.562500 0.660251
vt 0.125000 0.625000
vt 0.187500 0.625000
vt 0.187500 0.653638
vt 0.125000 0.653638
vt 0.125000 0.562500
vt 0.187500 0.562500
vt 0.187500 0.563083
vt 0.125000 0.563083
vt 0.375000 0.596109
vt 0.562500 0.589496
vt 0.562500 0.589496
vt 0.875000 0.750000
vt 0.812500 0.750000
vt 0.625000 0.937500
vt 0.625000 1.000000
vt 0.687500 0.545116
vt 0.625000 0.545116
vt 0.625000 0.500000
vt 0.687500 0.500000
vt 0.625000 0.437500
vt 0.618393 0.513214
vt 0.545029 0.686458
vt 0.517471 0.686458
vt 0.312500 0.686731
vt 0.312500 0.596109
vt 0.517471 0.563290
vt 0.545029 0.563290
vt 0.545029 0.563290
vt 0.517471 0.563290
vt 0.562500 0.687331
vt 0.125000 0.686731
vt 0.187500 0.686731
vt 0.187500 0.687500
vt 0.125000 0.687500
vt 0.625000 0.625000
vt 0.501706 0.565849
vt 0.560794 0.565849
vt 0.579971 0.686458
vt 0.625000 0.686458
vt 0.250000 0.686731
vt 0.250000 0.687500
vt 0.625000 0.312500
vt 0.625000 0.375000
vt 0.602442 0.375000
vt 0.602442 0.312500
vt 0.750000 0.545116
vt 0.750000 0.500000
vt 0.812500 0.500000
vt 0.625000 0.812500
vt 0.625000 0.875000
vt 0.602442 0.875000
vt 0.602442 0.812500
vt 0.687500 0.704884
vt 0.750000 0.704884
vt 0.750000 0.750000
vt 0.687500 0.750000
vt 0.687500 0.562500
vt 0.750000 0.562500
vt 0.750000 0.563290
vt 0.687500 0.563290
vt 0.250000 0.596109
vt 0.250000 0.625000
vt 0.687500 0.625000
vt 0.750000 0.625000
vt 0.750000 0.686458
vt 0.687500 0.686458
vt 0.750000 0.687500
vt 0.687500 0.687500
vt 0.250000 0.653638
vt 0.488721 0.312500
vt 0.488721 0.375000
vt 0.187500 0.500000
vt 0.250000 0.500000
vt 0.250000 0.562500
vt 0.250000 0.563083
vt 0.488721 0.812500
vt 0.488721 0.875000
vt 0.250000 0.750000
vt 0.187500 0.750000
vt 0.125000 0.750000
vt 0.375000 0.125000
vt 0.625000 0.125000
vt 0.625000 0.186710
vt 0.396879 0.186710
vt 0.375000 0.153891
vt 0.125000 0.500000
vt 0.375000 0.096362
vt 0.125000 0.596109
vt 0.187500 0.596109
vt 0.375000 0.186917
vt 0.875000 0.500000
vt 0.625000 0.250000
vt 0.625000 0.750000
vt 0.375000 0.812500
vt 0.375000 0.875000
vt 0.375000 0.937500
vt 0.375000 1.000000
vt 0.375000 0.375000
vt 0.375000 0.437500
vt 0.375000 0.312500
vt 0.500000 0.660251
vt 0.500000 0.678782
vt 0.500000 0.686458
vt 0.505117 0.563290
vt 0.500000 0.563290
vt 0.557383 0.686458
vt 0.562500 0.686458
vt 0.562500 0.570966
vt 0.562500 0.563290
vt 0.562500 0.563290
vt 0.500000 0.686458
vt 0.562500 0.686458
vt 0.500000 0.563290
vt 0.375000 0.686537
vt 0.375000 0.686455
vt -1.500607 0.096362
vt 0.375000 0.063463
vt 0.375000 0.186770
vt 0.375000 0.186710
vt 0.375000 0.572842
vt 0.125000 0.686458
vt 0.187500 0.686458
vt 0.125000 0.563290
vt 0.187500 0.563290
vt 0.250000 0.686458
vt 0.312500 0.686458
vt 0.250000 0.563290
vt 0.312500 0.563290
vt 0.375000 0.563290
vn -1.0000 0.0000 0.0000
vn 0.0000 1.0000 0.0000
vn 0.0000 -1.0000 0.0000
vn 0.0000 -0.0549 0.9985
vn 1.0000 0.0000 0.0000
vn 0.0000 -0.0063 1.0000
vn 0.0000 -0.0549 -0.9985
vn 0.0000 0.9239 0.3827
vn 0.0000 0.3827 0.9239
vn 0.0000 0.9239 -0.3827
vn 0.0000 0.3827 -0.9239
vn 0.0000 0.0000 -1.0000
vn 0.0000 -0.0083 -1.0000
vn 0.0000 0.0000 1.0000
vn -0.2426 0.9382 -0.2467
vn -0.2427 0.9385 0.2458
vn 0.2426 0.9382 -0.2467
vn 0.2427 0.9385 0.2458
vn 0.0000 0.0549 0.9985
vn 0.0000 0.0549 -0.9985
vn 0.0000 -0.3827 0.9239
vn 0.0000 -0.9239 0.3827
vn 0.0000 -0.3827 -0.9239
vn 0.0000 -0.9239 -0.3827
vn 0.0000 -0.3892 -0.9211
vn 0.0000 -0.9243 -0.3815
vn 0.0000 -0.9242 0.3818
vn 0.0000 -0.3877 0.9218
usemtl Material
s off
f 14/1/1 12/2/1 30/3/1 32/4/1 31/5/1 95/6/1 5/7/1
f 67/8/2 18/9/2 34/10/2 61/11/2
f 7/12/1 90/13/1 33/14/1 35/15/1 34/16/1 18/17/1 16/18/1
f 85/19/3 19/20/3 3/21/3 73/22/3
f 92/23/4 71/24/4 33/25/4 90/26/4
f 72/27/2 30/28/2 12/29/2 66/30/2
f 39/31/5 40/32/5 122/33/5 124/34/5 123/35/5 119/36/5 121/37/5 120/38/5
f 84/39/6 13/40/6 144/41/6 162/42/6
f 16/18/1 18/17/1 20/43/1 137/44/1 136/45/1
f 69/46/2 23/47/2 10/48/2 65/49/2
f 19/20/5 2/50/5 37/51/5 17/52/5 27/53/5 29/54/5 28/55/5 89/56/5 3/21/5
f 82/57/3 1/58/3 13/40/3 84/39/3
f 98/59/7 88/60/7 24/61/7 94/62/7
f 13/40/5 4/63/5 107/64/5 106/65/5 145/66/5 144/41/5
f 6/67/2 105/68/2 128/69/2 39/31/2
f 36/70/5 15/71/5 22/72/5 117/73/5 116/74/5
f 83/75/3 11/76/3 132/77/3 159/78/3
f 68/79/2 20/80/2 18/9/2 67/8/2
f 65/49/2 10/48/2 20/80/2 68/79/2
f 131/81/5 133/82/5 102/83/5 101/84/5 2/50/5 19/20/5
f 38/85/3 110/86/3 122/33/3 40/32/3
f 8/87/3 58/88/3 153/89/3 135/90/3
f 14/91/6 59/92/6 156/93/6 139/94/6
f 66/30/2 12/29/2 23/47/2 69/46/2
f 143/95/5 145/66/5 106/65/5 105/68/5 6/67/5 11/76/5
f 114/96/3 38/85/3 40/32/3 126/97/3
f 61/11/8 34/10/8 35/98/8 70/99/8
f 70/100/9 35/101/9 33/25/9 71/24/9
f 81/102/10 25/103/10 26/104/10 87/105/10
f 87/106/11 26/104/11 24/61/11 88/60/11
f 1/58/5 94/62/5 24/61/5 26/107/5 25/103/5 15/71/5 36/70/5 4/63/5 13/40/5
f 109/108/12 100/109/12 119/36/12 123/35/12
f 160/110/13 131/81/13 19/20/13 85/19/13
f 163/111/3 143/95/3 11/76/3 83/75/3
f 104/112/14 115/113/14 125/114/14 129/115/14
f 101/84/5 100/109/5 109/108/5 112/116/5 37/51/5 2/50/5
f 136/117/13 154/118/13 60/119/13 16/120/13
f 114/96/5 117/73/5 22/72/5 9/121/5 38/85/5
f 128/69/5 130/122/5 129/115/5 125/114/5 127/123/5 126/97/5 40/32/5 39/31/5
f 112/116/5 111/124/5 21/125/5 17/52/5 37/51/5
f 147/126/13 160/110/13 85/19/13 47/127/13
f 4/63/5 36/70/5 116/74/5 115/113/5 104/112/5 107/64/5
f 38/85/5 9/121/5 21/125/5 111/124/5 110/86/5
f 62/128/11 55/129/11 56/130/11 63/131/11
f 72/27/10 54/132/10 55/133/10 62/134/10
f 79/135/9 52/136/9 53/137/9 80/138/9
f 86/139/8 51/140/8 52/141/8 79/142/8
f 75/143/2 45/144/2 50/145/2 78/146/2
f 150/147/3 163/111/3 83/75/3 43/148/3
f 74/149/15 44/150/15 49/151/15 77/152/15
f 77/152/2 49/151/2 48/153/2 76/154/2
f 58/88/3 43/148/3 148/155/3 153/89/3
f 97/156/7 63/131/7 56/130/7 96/157/7
f 57/158/3 41/159/3 46/160/3 59/92/3
f 78/146/16 50/145/16 44/150/16 74/149/16
f 59/92/6 46/160/6 151/161/6 156/93/6
f 81/102/2 54/132/2 45/144/2 75/143/2
f 93/162/4 80/138/4 53/137/4 91/163/4
f 60/119/3 47/127/3 42/164/3 64/165/3
f 76/154/2 48/153/2 51/140/2 86/139/2
f 16/120/3 60/119/3 64/165/3 7/166/3
f 8/167/1 10/168/1 23/169/1 141/170/1 140/171/1
f 5/172/3 57/158/3 59/92/3 14/91/3
f 95/6/7 31/5/7 63/131/7 97/156/7
f 135/173/1 137/44/1 20/43/1 10/168/1 8/167/1
f 140/174/3 157/175/3 58/88/3 8/87/3
f 139/176/1 141/170/1 23/169/1 12/2/1 14/1/1
f 30/28/10 72/27/10 62/134/10 32/177/10
f 32/178/11 62/128/11 63/131/11 31/5/11
f 52/136/9 70/100/9 71/24/9 53/137/9
f 51/140/8 61/11/8 70/99/8 52/141/8
f 45/144/2 66/30/2 69/46/2 50/145/2
f 44/150/17 65/49/17 68/79/17 49/151/17
f 49/151/2 68/79/2 67/8/2 48/153/2
f 50/145/18 69/46/18 65/49/18 44/150/18
f 54/132/2 72/27/2 66/30/2 45/144/2
f 91/163/4 53/137/4 71/24/4 92/23/4
f 48/153/2 67/8/2 61/11/2 51/140/2
f 17/52/2 76/154/2 86/139/2 27/53/2
f 89/56/4 28/55/4 80/138/4 93/162/4
f 25/103/2 81/102/2 75/143/2 15/71/2
f 22/72/2 78/146/2 74/149/2 9/121/2
f 21/125/2 77/152/2 76/154/2 17/52/2
f 9/121/2 74/149/2 77/152/2 21/125/2
f 15/71/2 75/143/2 78/146/2 22/72/2
f 27/53/8 86/139/8 79/142/8 29/179/8
f 29/179/9 79/135/9 80/138/9 28/55/9
f 55/129/11 87/106/11 88/60/11 56/130/11
f 54/132/10 81/102/10 87/105/10 55/133/10
f 157/175/3 150/147/3 43/148/3 58/88/3
f 154/118/13 147/126/13 47/127/13 60/119/13
f 43/148/3 83/75/3 159/78/3 148/155/3
f 96/157/7 56/130/7 88/60/7 98/59/7
f 41/159/3 82/57/3 84/39/3 46/160/3
f 46/160/6 84/39/6 162/42/6 151/161/6
f 47/127/3 85/19/3 73/22/3 42/164/3
f 3/21/19 89/56/19 93/162/19 73/180/19
f 42/181/19 91/163/19 92/23/19 64/182/19
f 73/180/19 93/162/19 91/163/19 42/181/19
f 64/182/19 92/23/19 90/26/19 7/183/19
f 41/184/20 96/157/20 98/59/20 82/185/20
f 5/7/20 95/6/20 97/156/20 57/186/20
f 57/186/20 97/156/20 96/157/20 41/184/20
f 82/185/20 98/59/20 94/62/20 1/58/20
f 99/187/5 103/188/5 100/189/5 101/84/5 102/83/5
f 104/112/5 108/190/5 105/191/5 106/65/5 107/64/5
f 109/108/5 113/192/5 110/193/5 111/124/5 112/116/5
f 114/96/5 118/194/5 115/195/5 116/74/5 117/73/5
f 125/114/21 115/113/21 118/196/21 127/123/21
f 127/123/22 118/196/22 114/96/22 126/97/22
f 119/36/11 100/109/11 103/197/11 121/37/11
f 121/37/10 103/197/10 99/187/10 120/38/10
f 109/108/23 123/35/23 124/34/23 113/198/23
f 113/198/24 124/34/24 122/33/24 110/86/24
f 128/69/8 105/68/8 108/199/8 130/122/8
f 130/122/9 108/199/9 104/112/9 129/115/9
f 99/187/2 6/67/2 39/31/2 120/38/2
f 131/81/5 134/200/5 133/82/5
f 134/200/5 132/201/5 133/82/5
f 135/202/1 138/203/1 137/44/1
f 138/203/1 136/45/1 137/44/1
f 139/176/1 142/204/1 141/170/1
f 142/204/1 140/205/1 141/170/1
f 143/95/5 146/206/5 145/66/5
f 146/206/5 144/41/5 145/66/5
f 154/118/25 136/117/25 138/207/25 155/208/25
f 155/208/26 138/207/26 135/90/26 153/89/26
f 157/175/27 140/174/27 142/209/27 158/210/27
f 158/210/28 142/209/28 139/94/28 156/93/28
f 160/110/25 147/126/25 149/211/25 161/212/25
f 161/212/26 149/211/26 148/155/26 159/78/26
f 163/111/27 150/147/27 152/213/27 164/214/27
f 164/214/28 152/213/28 151/161/28 162/42/28
f 147/126/25 154/118/25 155/208/25 149/211/25
f 149/211/26 155/208/26 153/89/26 148/155/26
f 150/147/27 157/175/27 158/210/27 152/213/27
f 152/213/28 158/210/28 156/93/28 151/161/28
f 131/81/25 160/110/25 161/212/25 134/200/25
f 134/200/26 161/212/26 159/78/26 132/77/26
f 143/95/27 163/111/27 164/214/27 146/215/27
f 146/215/28 164/214/28 162/42/28 144/41/28
f 11/76/5 6/67/5 99/187/5 102/83/5 133/82/5 132/77/5
