# Blender v2.93.0 OBJ File: ''
# www.blender.org
mtllib Window.mtl
o Cube
v 0.500000 1.598091 -1.098091
v 0.500000 -1.598091 -1.098091
v 0.500000 1.598091 1.098091
v 0.500000 -1.598091 1.098091
v -0.500000 1.598091 -1.098091
v -0.500000 -1.598091 -1.098091
v -0.500000 1.598091 1.098091
v -0.500000 -1.598091 1.098091
v -0.500000 -2.000000 -1.500000
v -0.500000 -2.000000 1.500000
v 0.500000 2.000000 -1.500000
v 0.500000 -2.000000 -1.500000
v -0.500000 2.000000 1.500000
v 0.500000 2.000000 1.500000
v 0.500000 -2.000000 1.500000
v -0.500000 2.000000 -1.500000
v 0.000000 -1.598091 -1.098091
v 0.000000 -1.598091 1.098091
v 0.000000 1.598091 1.098091
v 0.000000 1.598091 -1.098091
vt 0.448756 0.546671
vt 0.551086 0.654603
vt 0.182006 0.674448
vt 0.279118 0.560931
vt 0.282359 0.352387
vt 0.180030 0.244455
vt 0.549109 0.224610
vt 0.451997 0.338127
vt 0.106652 0.165279
vt 0.620670 0.129747
vt 0.428028 0.523863
vt 0.427804 0.362514
vt 0.110445 0.769311
vt 0.303088 0.375195
vt 0.303311 0.536544
vt 0.624463 0.733779
vt 0.409015 0.391897
vt 0.328039 0.394425
vt 0.322100 0.507161
vt 0.731002 0.855235
vt 0.000113 0.898945
vt 0.731002 0.000113
vt 0.403076 0.504633
vt 0.000114 0.043823
vt 0.731229 0.391101
vt 0.731229 0.000113
vt 0.999886 0.000113
vt 0.999886 0.391101
vn 0.0000 1.0000 0.0000
vn 0.0000 0.0000 1.0000
vn 0.0000 -1.0000 0.0000
vn 0.0000 0.0000 -1.0000
vn -1.0000 0.0000 0.0000
vn 1.0000 0.0000 0.0000
usemtl Material
s off
f 11/1/1 16/2/1 13/3/1 14/4/1
f 15/5/2 14/4/2 13/3/2 10/6/2
f 9/7/3 12/8/3 15/5/3 10/6/3
f 9/7/4 16/2/4 11/1/4 12/8/4
f 8/9/5 6/10/5 9/7/5 10/6/5
f 1/11/6 2/12/6 12/8/6 11/1/6
f 7/13/5 8/9/5 10/6/5 13/3/5
f 4/14/6 3/15/6 14/4/6 15/5/6
f 6/10/5 5/16/5 16/2/5 9/7/5
f 3/15/6 1/11/6 11/1/6 14/4/6
f 5/16/5 7/13/5 13/3/5 16/2/5
f 2/12/6 4/14/6 15/5/6 12/8/6
f 17/17/1 18/18/1 4/14/1 2/12/1
f 18/18/4 19/19/4 3/15/4 4/14/4
f 20/20/3 19/21/3 7/13/3 5/16/3
f 17/22/2 20/20/2 5/16/2 6/10/2
f 2/12/2 1/11/2 20/23/2 17/17/2
f 1/11/3 3/15/3 19/19/3 20/23/3
f 8/9/4 7/13/4 19/21/4 18/24/4
f 6/10/1 8/9/1 18/24/1 17/22/1
f 17/25/6 20/26/6 19/27/6 18/28/6
