# Blender 4.0.0
# www.blender.org
mtllib Libro.mtl
o Libro_6
v -0.021672 -0.167448 0.120505
v -0.021672 -0.163778 0.124174
v -0.025341 -0.163778 0.120505
v -0.021672 0.163778 0.124174
v -0.021672 0.167448 0.120505
v -0.025341 0.163778 0.120505
v -0.021672 -0.167448 -0.120505
v -0.025341 -0.163778 -0.120505
v -0.021672 -0.163778 -0.124174
v -0.021672 0.167448 -0.120505
v -0.021672 0.163778 -0.124174
v -0.025341 0.163778 -0.120505
v 0.021672 -0.167448 0.120505
v 0.025341 -0.163778 0.120505
v 0.021672 -0.163778 0.124174
v 0.021672 0.167448 0.120505
v 0.021672 0.163778 0.124174
v 0.025341 0.163778 0.120505
v 0.021672 -0.167448 -0.120505
v 0.021672 -0.163778 -0.124174
v 0.025341 -0.163778 -0.120505
v 0.021672 0.167448 -0.120505
v 0.025341 0.163778 -0.120505
v 0.021672 0.163778 -0.124174
v -0.021672 -0.167448 -0.112979
v -0.025341 -0.163778 -0.112979
v -0.021672 0.167448 -0.112979
v -0.025341 0.163778 -0.112979
v 0.021672 -0.167448 -0.112979
v 0.025341 -0.163778 -0.112979
v 0.021672 0.167448 -0.112979
v 0.025341 0.163778 -0.112979
v -0.016082 -0.167448 -0.120505
v -0.016082 -0.163778 -0.124174
v -0.016082 0.167448 -0.120505
v -0.016082 0.163778 -0.124174
v -0.015630 -0.162739 0.118350
v -0.015630 -0.159173 0.121917
v -0.015630 0.162739 0.118350
v -0.015630 0.159173 0.121917
v -0.015630 -0.162739 -0.112999
v -0.015630 0.162739 -0.112997
v 0.016081 -0.163778 -0.124174
v 0.016081 0.167448 -0.120505
v 0.015629 -0.162739 0.118350
v 0.015629 0.159173 0.121917
v 0.015629 0.162739 -0.112997
v 0.016081 -0.167448 -0.120505
v 0.016081 0.163778 -0.124174
v 0.015629 -0.159173 0.121917
v 0.015629 0.162739 0.118350
v 0.015629 -0.162739 -0.112999
vn 0.3500 -0.0000 0.9367
vn 1.0000 -0.0000 -0.0000
vn 0.6147 0.7887 -0.0000
vn -1.0000 -0.0000 -0.0000
vn -0.0000 -0.0000 -1.0000
vn -0.5774 -0.5774 0.5773
vn -0.5774 0.5774 0.5773
vn -0.5774 -0.5774 -0.5773
vn -0.5774 0.5774 -0.5773
vn 0.5774 -0.5774 0.5773
vn 0.5774 0.5774 0.5773
vn 0.5774 -0.5774 -0.5773
vn 0.5774 0.5774 -0.5773
vn -0.7071 -0.7071 -0.0000
vn -0.7071 -0.0000 0.7071
vn -0.7071 0.7071 -0.0000
vn -0.7071 -0.0000 -0.7071
vn -0.0000 -0.7071 -0.7071
vn -0.0000 0.7071 -0.7071
vn 0.7071 -0.0000 -0.7071
vn 0.7071 -0.7071 -0.0000
vn 0.7071 0.7071 -0.0000
vn 0.7071 -0.0000 0.7071
vn -0.6262 -0.5513 0.5513
vn 0.6262 0.5513 0.5513
vn -0.6147 -0.7888 -0.0000
vn -0.3618 -0.8927 0.2688
vn 0.3618 0.8927 0.2687
vn -0.0000 0.8472 0.5313
vn 0.3619 -0.8927 0.2688
vn 0.6147 -0.7887 -0.0000
vn -0.0000 0.7071 0.7071
vn 0.6262 -0.5513 0.5513
vn -0.0000 1.0000 -0.0000
vn -0.0000 -0.0000 1.0000
vn -0.3499 -0.0000 0.9368
vn -0.6147 0.7888 -0.0000
vn -0.6262 0.5513 0.5513
vn -0.3618 0.8927 0.2687
vn -0.0000 -0.8471 0.5314
vn -0.0000 -1.0000 -0.0000
vn -0.0000 -0.7071 0.7071
vt 0.377739 0.954328
vt 0.622261 0.954328
vt 0.622261 0.981899
vt 0.377739 0.981899
vt 0.377739 0.511270
vt 0.622261 0.511270
vt 0.622261 0.746306
vt 0.377739 0.746306
vt 0.829328 0.511270
vt 0.856899 0.511270
vt 0.856899 0.746306
vt 0.829328 0.746306
vt 0.377739 0.238730
vt 0.622261 0.238730
vt 0.622261 0.246306
vt 0.377739 0.246306
vt 0.377739 0.454322
vt 0.622261 0.454322
vt 0.622261 0.481899
vt 0.377739 0.481899
vt 0.143101 0.746306
vt 0.143101 0.750000
vt 0.125000 0.746306
vt 0.625000 0.981899
vt 0.622261 1.000000
vt 0.143101 0.503694
vt 0.125000 0.503694
vt 0.143101 0.500000
vt 0.625000 0.268101
vt 0.622261 0.268101
vt 0.622261 0.250000
vt 0.356899 0.746306
vt 0.375000 0.746306
vt 0.356899 0.750000
vt 0.625000 0.768101
vt 0.622261 0.768101
vt 0.622261 0.750000
vt 0.356899 0.503694
vt 0.356899 0.500000
vt 0.375000 0.503694
vt 0.625000 0.503694
vt 0.622261 0.503694
vt 0.622261 0.500000
vt 0.143101 0.511270
vt 0.125000 0.511270
vt 0.377739 0.000000
vt 0.622261 0.000000
vt 0.622261 0.003694
vt 0.377739 0.003694
vt 0.625000 0.238730
vt 0.625000 0.246306
vt 0.377739 0.268101
vt 0.170672 0.503694
vt 0.170672 0.500000
vt 0.625000 0.454322
vt 0.625000 0.481899
vt 0.377739 0.503694
vt 0.356899 0.511270
vt 0.643101 0.511270
vt 0.643101 0.746306
vt 0.377739 0.768101
vt 0.329322 0.746306
vt 0.329322 0.750000
vt 0.625000 0.954328
vt 0.329322 0.511270
vt 0.329322 0.503694
vt 0.643101 0.503694
vt 0.625000 0.003694
vt 0.829327 0.503694
vt 0.856899 0.503694
vt 0.670678 0.503694
vt 0.670678 0.511270
vt 0.170672 0.511270
vt 0.170672 0.746306
vt 0.625000 0.795678
vt 0.622261 0.795678
vt 0.170672 0.750000
vt 0.625000 0.295672
vt 0.622261 0.295672
vt 0.329322 0.500000
vt 0.377739 0.295672
vt 0.670678 0.746306
vt 0.377739 0.795678
s 0
f 38/1/1 40/2/1 4/3/1 2/4/1
f 30/5/2 32/6/2 18/7/2 14/8/2
f 42/9/3 27/10/3 5/11/3 39/12/3
f 26/13/4 28/14/4 12/15/4 8/16/4
f 43/17/5 49/18/5 24/19/5 20/20/5
f 1/21/6 2/22/6 3/23/6
f 4/3/7 5/24/7 6/25/7
f 7/26/8 8/27/8 9/28/8
f 10/29/9 11/30/9 12/31/9
f 13/32/10 14/33/10 15/34/10
f 16/35/11 17/36/11 18/37/11
f 19/38/12 20/39/12 21/40/12
f 22/41/13 23/42/13 24/43/13
f 25/44/14 1/21/14 3/23/14 26/45/14
f 2/46/15 4/47/15 6/48/15 3/49/15
f 27/50/16 10/51/16 12/15/16 28/14/16
f 11/30/17 9/52/17 8/16/17 12/15/17
f 33/53/18 7/26/18 9/28/18 34/54/18
f 44/55/19 22/56/19 24/19/19 49/18/19
f 23/42/20 21/57/20 20/20/20 24/19/20
f 29/58/21 19/38/21 21/57/21 30/5/21
f 31/59/22 16/60/22 18/7/22 32/6/22
f 17/36/23 15/61/23 14/8/23 18/7/23
f 45/62/24 13/32/24 15/34/24 50/63/24
f 39/64/25 5/24/25 4/3/25 40/2/25
f 52/65/26 29/58/26 13/32/26 45/62/26
f 48/66/27 19/38/27 29/58/27 52/65/27
f 22/67/22 31/59/22 32/6/22 23/42/22
f 13/32/21 29/58/21 30/5/21 14/8/21
f 5/68/16 27/50/16 28/14/16 6/48/16
f 7/26/14 25/44/14 26/45/14 8/27/14
f 3/49/4 6/48/4 28/14/4 26/13/4
f 35/69/28 10/70/28 27/10/28 42/9/28
f 21/57/2 23/42/2 32/6/2 30/5/2
f 44/71/29 35/69/29 42/9/29 47/72/29
f 7/26/30 33/53/30 41/73/30 25/44/30
f 25/44/31 41/73/31 37/74/31 1/21/31
f 51/75/32 39/64/32 40/2/32 46/76/32
f 1/21/33 37/74/33 38/77/33 2/22/33
f 10/29/19 35/78/19 36/79/19 11/30/19
f 48/66/18 33/53/18 34/54/18 43/80/18
f 9/52/5 11/30/5 36/79/5 34/81/5
f 47/72/34 42/9/34 39/12/34 51/82/34
f 50/83/35 46/76/35 40/2/35 38/1/35
f 15/61/36 17/36/36 46/76/36 50/83/36
f 31/59/37 47/72/37 51/82/37 16/60/37
f 19/38/18 48/66/18 43/80/18 20/39/18
f 16/35/38 51/75/38 46/76/38 17/36/38
f 22/67/39 44/71/39 47/72/39 31/59/39
f 33/53/40 48/66/40 52/65/40 41/73/40
f 41/73/41 52/65/41 45/62/41 37/74/41
f 37/74/42 45/62/42 50/63/42 38/77/42
f 35/78/19 44/55/19 49/18/19 36/79/19
f 34/81/5 36/79/5 49/18/5 43/17/5
